<?xml version="1.0" encoding="UTF-8"?>
<svg id="svg5" xmlns="http://www.w3.org/2000/svg" version="1.1" xmlns:inkscape="http://www.inkscape.org/namespaces/inkscape" xmlns:sodipodi="http://sodipodi.sourceforge.net/DTD/sodipodi-0.dtd" xmlns:svg="http://www.w3.org/2000/svg" xmlns:xlink="http://www.w3.org/1999/xlink" viewBox="0 0 7099.7 8192">
  <!-- Generator: Adobe Illustrator 29.1.0, SVG Export Plug-In . SVG Version: 2.1.0 Build 142)  -->
  <defs>
    <style>
      .st0 {
        fill: #60f;
      }

      .st0, .st1, .st2, .st3, .st4, .st5, .st6, .st7, .st8, .st9, .st10, .st11, .st12, .st13, .st14, .st15, .st16, .st17, .st18, .st19, .st20, .st21, .st22, .st23, .st24, .st25, .st26, .st27, .st28, .st29, .st30 {
        fill-opacity: .5;
      }

      .st31 {
        stroke: #d5b43c;
        stroke-width: 8.7px;
      }

      .st31, .st32 {
        stroke-linejoin: bevel;
      }

      .st31, .st32, .st33 {
        stroke-linecap: square;
      }

      .st31, .st33 {
        fill: none;
      }

      .st1 {
        fill: #ff0;
      }

      .st2 {
        fill: #f66;
      }

      .st3 {
        fill: #993;
      }

      .st4 {
        fill: #c66;
      }

      .st5 {
        fill: #2020ff;
      }

      .st6 {
        fill: #c96;
      }

      .st7 {
        fill: #396;
      }

      .st8 {
        fill: blue;
      }

      .st9 {
        fill: #093;
      }

      .st10 {
        fill: #399;
      }

      .st11 {
        fill: #336;
      }

      .st12 {
        fill: #fc9;
      }

      .st13 {
        fill: #969;
      }

      .st14 {
        fill: #39c;
      }

      .st15 {
        fill: #204400;
      }

      .st16 {
        fill: #999;
      }

      .st34, .st35, .st36, .st37 {
        isolation: isolate;
      }

      .st35 {
        font-size: 14.2px;
      }

      .st35, .st36, .st37 {
        font-family: ArialMT, Arial;
      }

      .st17 {
        fill: #936;
      }

      .st32 {
        display: none;
        fill: #333;
        fill-opacity: .2;
        stroke: #000;
        stroke-width: .2px;
      }

      .st18 {
        fill: #606;
      }

      .st19 {
        fill: #996;
      }

      .st20 {
        fill: #fc3;
      }

      .st36 {
        font-size: 8.5px;
      }

      .st21 {
        fill: #f33;
      }

      .st22 {
        fill: #c63;
      }

      .st37 {
        font-size: 8.5px;
      }

      .st23 {
        fill: #666;
      }

      .st24 {
        fill: #633;
      }

      .st25 {
        fill: #6c3;
      }

      .st33 {
        stroke: #a98;
        stroke-dasharray: 4.8 2.4;
        stroke-miterlimit: 1.6;
        stroke-width: .8px;
      }

      .st26 {
        fill: #cf9;
      }

      .st27 {
        fill: #00a080;
      }

      .st28 {
        fill: #933;
      }

      .st29 {
        fill: #c33;
      }

      .st30 {
        fill: #402000;
      }
    </style>
  </defs>
  <sodipodi:namedview id="namedview7" bordercolor="#000000" borderopacity="0.25" inkscape:current-layer="layer2" inkscape:cx="3290.2562" inkscape:cy="8135.0425" inkscape:deskcolor="#d1d1d1" inkscape:document-units="px" inkscape:lockguides="false" inkscape:pagecheckerboard="0" inkscape:pageopacity="0.0" inkscape:showpageshadow="2" inkscape:window-height="997" inkscape:window-maximized="0" inkscape:window-width="960" inkscape:window-x="960" inkscape:window-y="0" inkscape:zoom="0.45254834" pagecolor="#ffffff" showgrid="false" showguides="false">
    <inkscape:grid id="grid342" originx="0" originy="0" type="xygrid"/>
  </sodipodi:namedview>
  <g id="mapa" inkscape:groupmode="layer" inkscape:label="Mapa">
    <image id="mapapng" class="st34" width="13312" height="15360" transform="translate(0) scale(.5)" xlink:href="Mapa.png"/>
  </g>
  <g id="layer3" inkscape:groupmode="layer" inkscape:highlight-color="#ebaa6a" inkscape:label="Setores">
    <path id="path15253" class="st32" d="M2013.8,5753.4l-34.5,67.1-19.3,44.9-103.5,206.2-82.6,154.9-117.3,199.7-136.5,257.5-364,676.2-311,589.1-76.8,133.9-33.4,65.9-14.1,31.9-63.5-23.5.7-33.4-1.2-16.4-3.6-30.3-6.6-46.6-8.5-68.4-9.1-80.3-3.8-85.4-15.1-178-6.7-107.5-1.5-19.3-6.4-55.5-2.3-30.8-13.2-17.8-4.7-2.8-6.6-5.5-6.6-16.2-.2-30.6,2.6-3.1,6.7-26.1.4-10.8-8-35.9-24.6-243.5-30.2-318.4-60.5-492.5,11.7.5,21.7-5.4,37.1-24.8,17.9-24.9,9.9-36.3-3-24.4-21.6-46.1-26.6-27.3,180.2,18.2,138.5-21.6,7.1,10.9,172-41.1,48.4-10.3,366.1-82.7,230.2-49.7,375.8-83.8h0Z" inkscape:label="Setor UniversitÃƒÂ¡rio"/>
  </g>
  <g id="layer2" inkscape:groupmode="layer" inkscape:highlight-color="#eb2d1f" inkscape:label="TerritÃƒÂ³rios">
    <g id="g2560" inkscape:label="NÃƒÂ£o mapeados">
      <path id="path2557" class="st9" d="M6116.5,1269.6l-700.3,1301.9-27.4,31.4-120.9,221.9,15.8-2,84.7,15.7,34.5,9.2,58.1,23.6,44.2,20.1,64.2,11.1,51.1-6.7,22.7-6.7,31.1-7.4,37.7-15.8,28.9-7.1,56.8-7,75.1-7.8,51.8-5.6,38.1-5.4,50.5-6.6,34.2-1.4,30,.2,31.5,1.9,33.4,5.1,38,9.7-1.4-11.4-5.2-6.9,2.6-10.6-1.7-9.9,8.7-14.7,9.7-6.7,12.6,1.6h12.6l27.1-27.5,10.8-23.2,22.6-41.4,11.6-17.1,16.1-15.8,14.4-24.3,12.3-14.5,9.7-13.2,8.8-10.1,8-4.5,9.7-9.8,17.8-21.4,9.5-16.6,10.9-36.9,12.7-17.6,8-13.8,11.3-15.3,10.8-16.8,6.1-34.8-1.5-5.4-8.9-8.7-3-4.1,2.4-11.4,7.3-6,6.2-7.3-3.6-18.2-1.4-10.1v-42.5l-1.1-9.7-1.1-26.4-10.1-27.1,3.7-8.9,3.7-4.8-2.6-7.2-2.2-12-4.9-10.6-2.5-9.5-3.7-35.7,6.5-11.9,4.4-11.4,2.5-7.5,9.8-13.2,6.7-6.9,6.6-7.8,8.3-.9,6.8-1.6h10.6l5.9-3.5,3.8-5,12.4-34.2v-22.7l2.2-8v-10.2l-3.4-8.7-17.1-17.2,1.3-16.1v-13.7l1.1-8.1-1.2-9.9v-7.8l3.7-13.3,3.7-6.1,3.4-7.9,1-4.4,5.1-10.4-.8-6.8-2.5-4-6-5-.4-19-1.7-9.9-3.9-15.5-2.8-5.9-3.5-4.4-2.7-6.6,2.3-9.4,4-10.2,1.2-9.9,8.5-8.5v-8.6c0,0,8.6-14.4,8.6-14.4l2.1-11.2.9-8.3,5.1-9.4,5.3-6.5,4.6,1.3,4.6,7,1.2,5,2.1,1.3h1l7.6-2.2,4.5-5.4,7.7-4.2,8.9-7.6,7.5-11,9.9-5.1,8.7-7.6,6.1-8.3,9.1-5,6.7-5.9,7-7v-6.2c.1,0-4.7-7.5-4.7-7.5l-7-9-1.5-10.2-3.5-4.6-1.6-9.1v-23.8l13.2-15.8-133.8-163-73.3-69.3-89.3-72.3-42.3-20.8-31.6-10.7-38.5-2-33.8-2.6-33.2-5.1-30.9,55.5h0Z" inkscape:label="Residencial Carlos Freitas"/>
      <path id="path2672" class="st9" d="M5801.3,29.3l606.3,892.1,638.9,171.2-25.3,30.5,1.5,9.9-35.6,56.6-106.5,138.3-13.1,29.2-16.1,4.9-3.2,12.2-5.3,4.5-10.2,1.2-13.1,6.7-31.3-6.6h-2.9l-12.2,1.2h-20.2l-12.9,2.6-8.9,14-21.4,15.1-9.7,8.3-6.5,16.2-4.8,17.8-4.1,27.8-11.8,27-21.4,36.6-103.4-117.8-55.4-64-11.9-13.2-116.2-95.7-16.6-10.6-66.2-30.2-53.1-16.5-67.4-17.7-42.9-14.6-35.6-13.8-26.3-20.5-24.4-21.6-34.1-52.1-360.3-533.2-4.2-176.8,37.6-52.4,44.9-126.8,38.9-75.3,46-64.7h0Z" inkscape:label="Agetop"/>
      <path id="path3502" class="st9" d="M5217.8,2915l-37.7,527.8-411.5-57.4-73.5-20.6-73.7-45.7-64.5,14.8-29.2-5.4-304.6-73.4-450.3-106.2-25.4-58.6,40.1-93.6,10.6-65.4,304.1-539.2,277.8-285.3.6,7.1v10c-.1,0-.7,19.2-.7,19.2l2.9,15.8,13.4,19.5,11.1,18.5,12.5,24.6,5.9,29.3,23.3,56.6,32.9,56.2,7.5,11.1,11.7,23.3,11.8,25.2,11.7,41.4,37,112.7,7.4,17,10.3,12,27.1,17.3,35.6-.2,20.9,5.3,28.9,19.6,98.4,52.1,50.9,41.8,40.1,38.5,22.1,28.6,33.4,63.1,18.1,28.9,18.9,34.5,6.8,7.9,4.6,3.7,6.5,4.2,37.7,32.3,25.6,18.9,20.7,7.3,57.5-8.7,25.9-14.5,18.8-21.8,20.5-26.6,19.3-23.4h.1Z" inkscape:label="Nada"/>
      <path id="path7951" class="st9" d="M4394.9,1963.2l34.1-56.8,55.5-70.7,55.2-129.1,43.2-77.3,70.9-83.2,111.2-123.5,141.9-169.6,227.7-276.8,286.9-341.3,88-81.1,16.5-19.7,10.7-15.2,13.9-12.5h.5l13.9-3.7,17.6,3.7,14.9,13.9,57.1,87.5-222.4,320.5-4,9.3,143.7,72.8,26.4,15.7-137.9,229.8-20.5,30.3-66.7,108.5-145.3,243.5-2.7,11.2-9.1,23.5-43.5,72.3-85.4,138.9-85.8,137.1-9.9,23.5-326.9,540.8-12.3-4.3-14.4-6.9-17.1-30.1-25.1-64.8-13.6-65.6-20.5-64.5-30.4-73.1-23.5-52.8-38.9-76.3-15.2-36.3-14.7-43.7-22.7-76.5-12.2-20.4-9.5-6.8h0Z" inkscape:label="IndÃƒÂºstrias" sodipodi:insensitive="true" sodipodi:nodetypes="cccccccccccccccccccccccccccccccccccccccccccccccc"/>
    </g>
    <g id="g3740" inkscape:label="Vila Morais">
      <g id="g3678" inkscape:label="TerritÃƒÂ³rio 29">
        <path id="path1027" class="st16" d="M2637.7,5581.2l-13.3.4-33.2-149,7.5-23.8,321.2-480.4,18.9-2.2,105.8,55.9v8.5l-283.7,421.1-11.7,18.9-5.9,13.6-3.1,10.3-2.5,12.4-.2,18.2,2.9,15.3v7.2l-2,4.5-6.5,5.1-94.1,64h-.1Z" inkscape:label="Quadra 29"/>
        <path id="path1025" class="st16" d="M2881.8,4902.6l5,24.5-119.9,176.7-17.6,3.6-103.1-70.2-4.5-14.7,112.6-169.7,18.9-4.9,108.6,54.6h0Z" inkscape:label="Quadra 28"/>
        <path id="path1019" class="st16" d="M2526.1,5200.2l1.2,13.6,106.7,71.2,14.7-.5,94.5-140.8-1.9-12.6-106.9-72.2-16.5,2.6-91.8,138.7h0Z" inkscape:label="Quadra 27"/>
        <path id="path1017" class="st16" d="M2500.5,5239.9l17.7-3.7,101.2,68.6,3.8,20.2-33.4,49.5-17.9,5.8-106-73.5-2-11.9,36.6-54.9h0Z" inkscape:label="Quadra 26"/>
        <path id="path1013" class="st16" d="M2429.8,5337.7l13.3-1.3,102.2,67.9-4.1,12.4-181,39-4.5-6.7,74.1-111.4h0Z" inkscape:label="Quadra 25"/>
        <path id="path1011" class="st16" d="M2559.5,5444.5l28.6,132.5-11.1,15.6-382.7,84.3-11.9.2-10.7-3.4-8.7-9.6-3.7-10.5.6-10.9,40.7-112.2,18-14.4,340.9-71.7h0Z" inkscape:label="Quadra 24"/>
        <path id="path1023" class="st16" d="M2717.3,4819.8l2.3,22-104.7,158.5-15.5,4.5-82.9-55.7-1.9-11.8,101.4-157.3,11.4-6,89.9,45.9h0Z" inkscape:label="Quadra 18"/>
        <path id="path1021" class="st16" d="M2505.1,4970.5l-12.3,4.2-93.7,145.9,1.3,9,83.4,55.4,15-5.7,97.9-145.8-91.6-63h0Z" inkscape:label="Quadra 17"/>
        <path id="path1015" class="st16" d="M2269.7,5359l109.8-209.1,10.9-2.4,82.7,57.4,3.2,6.7-1,9.1-149.3,226.5-7.7,8.2-7.7,4.9-10.1,3.6-61.7,12.4-6.1-4.4-1.1-9.3,38.1-103.4h0Z" inkscape:label="Quadra 16"/>
        <path id="path14015" class="st16" d="M3085.4,4968.6l261.9,129.2,98.2-144.3,23.6-36,47.3-77,34.1-18.6,140.3-72.7,53.4-29.2,28.1-16.1,6.7-6.6,18.5-22.7,135.6-202.7,12.1-2.8,134.7,84.7-15.5,17.4-15,11.5-41,17.4-21.5,3.6-5.8,2.1-15.7,8.5-7.2,1.5-7.7,3.3-12.3,8.7-2.1,3.5-1.8,4.3-5.1,17.9-1.3,9.7-6.7,16.3-2.1,8.7-1.4,12.8-2.7,11.7-4.3,8.7-3.3,5.1-19.3,15.8-10.1,6.8-8.7,4.4-25.3,4.2-17.2,3.4-23.6,10.2-7.5,7.3-12.3,16.3-10.6,11.6-18.5,25.3-16.9,26.5-7.3,9.8-16.4,18.7-11.4,9.9-6.8,3.6-7.5,2.7-9.8,4.7-8.1,5.2-10,8.3-24.1,24.3-6.8,4.7-3.2,1.7-28.6,7.8-11.7,7.2-9.8,11.7-6.4,9.4-3.7,4-5.9,9.3-10,14.3-7.9,8.6-6.3,5.1-18.4,7.9-10.1,5.2-7.3,4.7-5.1,5.6-11.7,16.7-5.2,8.9-4.7,6-6.2,6.2-44.4,31.3-8.1,9.8-3.8,1.5-3,5-1.4,4.7-12.8,10.8-9.9,6.3-19.1,16-27.7,29.2-7.2,5-7.3,7.5-47.9,38.6-19.9,12.6-28.7,22.6-24.2,16.6-8.2,8.9-5,8.2-17.9,21.5-8.2,6.8-25.2,8.3-11.3,9.9-6.3,7.7-9.6,14.9-5.9,14.2-12.2,23.3-14.5,19.8-31.8,28.5-70.7-44.1-10.5-5.2-14.9-5.4-18.7-3.8-7.6-.9h-23.3c0,0-10.7,1.5-10.7,1.5l-11.4,2.7-10.1,3.1-9.7,3.4-11.4,5-9.8,5.2-7.3,4.7-14.2,10.5-11,7.6-28.9,21.2-2.2.7h-1.8l-2.2-1.1-2.7-2.8-2-2.8-1.9-5.8v-4.3c-.1,0,2.3-18.6,2.3-18.6l5.9-18.7,183.3-272.2,131.2-191.3h0Z" inkscape:label="Ãƒrea/Quadra X"/>
      </g>
      <g id="g3711" inkscape:label="TerritÃƒÂ³rio 28">
        <path id="path3526" class="st8" d="M3826.2,4394.6l7-3.5,84.3,52.8,2.2,12-129.2,194.4-16.6,21.3-16.4,14.9-182.9,96.9-11.1-.3,5.4-13.3,5.5-6.8,8.8-13.7,242.9-354.6h0Z" inkscape:label="Quadra V"/>
        <path id="path3524" class="st8" d="M3695.8,4305.4l10.6-1.5,89.6,57.4.5,14.6-216.7,325.1-15.3,2.8-80-66.6.6-14.1,210.7-317.7h0Z" inkscape:label="Quadra T"/>
        <path id="path370" class="st8" d="M3327.8,5065.9l10.8-2.8,218.9-328.5-1.1-11.1-81-68.1-13.5,2.1-227.6,344.7,1.1,11.3,92.3,52.4h0Z" inkscape:label="Quadra S"/>
        <path id="path3522" class="st8" d="M3576.7,4233.8l11.7-1.9,80.4,51.6,4.7,18.3-140.9,211.9-93.4-62.5v-12.2l137.5-205.3h0Z" inkscape:label="Quadra R"/>
        <path id="path3520" class="st8" d="M3414,4476.2l10.1-2.1,86.5,58.2,2.3,12.7-122.6,183.2-17.9,4.6-79.2-55.3-1.7-18.1,122.6-183.3h0Z" inkscape:label="Quadra Q"/>
        <path id="path3518" class="st8" d="M3111.2,4930.7l.5,13.4,91.5,51.4,12.3-4.7,148.1-224.1-3.6-13.5-80.1-55.9-13.7,1.5-155,231.7h0Z" inkscape:label="Quadra P"/>
      </g>
      <g id="g3697" inkscape:label="TerritÃƒÂ³rio 27">
        <path id="path1887" class="st18" d="M3443.4,4142.5l13.3-.9,96.5,58.9,3.1,14.6-139.9,211.7-13.9,1.3-95.9-64-1.8-11.6,138.6-210h0Z" inkscape:label="Quadra M"/>
        <path id="path1881" class="st18" d="M3279.9,4389.9l13.9-4.4,93.5,62.1,3.7,16.7-120.3,181.2-18.5,3-90.9-62.5-3-12.7,121.5-183.5h0Z" inkscape:label="Quadra L"/>
        <path id="path1779" class="st18" d="M3127.5,4616.5l13.4-3.6,94.3,64.1,4,17.5-166.6,250.3-24,1.6-97.6-50.3-3-17.2,179.4-262.5h0Z" inkscape:label="Quadra K" sodipodi:nodetypes="ccccccccc"/>
        <path id="path1889" class="st18" d="M3286.1,4052.1l14.5-3,108.4,66.3,3.5,16.1-133.3,203.6-14.9,2.2-104.4-68.9-4.2-15.2,130.5-201.1h0Z" inkscape:label="Quadra J"/>
        <path id="path1883" class="st18" d="M3132.2,4287.9l12.4-.8,106.1,70.9,2.3,16.5-118.8,179.8-17,2.8-103.6-71.9.4-16.6,118.1-180.7h0Z" inkscape:label="Quadra I"/>
        <path id="path1891" class="st18" d="M3149.2,3971.1l13.1-4.9,95.3,57.4,4.4,17.7-131.4,194.5-15.3,3.7-86.7-58.1-3.4-18.1,123.9-192.2h0Z" inkscape:label="Quadra H"/>
        <path id="path1885" class="st18" d="M3101.9,4263.7l1.3,18-92.7,133.5-26.1,39.9-18.2,2.8-86.8-58.6.4-16.2,114.8-178.5,14.8-2.9,92.6,61.9h0Z" inkscape:label="Quadra G" sodipodi:nodetypes="cccccccccc"/>
        <path id="path1877" class="st18" d="M3001.5,4518.7l99.9,68.7,1.8,19.8-178.8,262.9-19.1,4.7-115-59-1.9-14.3,186.5-280,26.6-2.8h0Z" inkscape:label="Quadra 5"/>
        <path id="path1879" class="st18" d="M2850.9,4420.2l11.9-3.5,97.4,66.5-198.4,301-18.6,3.6-85.9-44.7-3.5-16.3,197-306.6h0Z" inkscape:label="Quadra 4"/>
      </g>
      <g id="g13999" inkscape:label="TerritÃƒÂ³rio 26">
        <path id="path13939" class="st28" d="M3691.4,3676l7,3.5,4.9,5.8,1.7,10-2.5,7.9-118.8,175.3-13.9,3.6-104.5-68.6-3.1-15.9,79.6-119.1,6.5-7.5,9.8-5.4,9.4-2.4,25.8,2.1,83.9,8.7,14.3,2.1h-.2Z" inkscape:label="Quadra T1" sodipodi:nodetypes="cccccccccccccccc"/>
        <path id="path13937" class="st28" d="M3580.9,3934.5l21.9-.5,89.1,56.9,2.1,12.5-113.5,172.9-18.5,3.4-92.7-56.3-4.5-16.1,116-172.8h.1Z" inkscape:label="Quadra S5"/>
        <path id="path13931" class="st28" d="M3842.5,3834.4l14.7-2.2,80.5,53.6,3.5,14-127.5,187.3-17.3,1.6-79.3-53.7-2.3-14.9,127.7-185.6Z" inkscape:label="Quadra S3"/>
        <path id="path13933" class="st28" d="M3682.5,4264.2l13.3-.4,93.3-139.8-5-15.5-82.5-55.6-9,2.9-93.5,140.5,3.9,16.4,79.5,51.4h0Z" inkscape:label="Quadra S2"/>
        <path id="path13935" class="st28" d="M3870.4,3700.2l14.1,8.3,3.4,16.4-166.8,249.3-7.4,3.3-106.5-69.5v-8.7c0,0,30.2-46.4,30.2-46.4l55.4-80.3,13.1-19.9,12.5-21.1,35.9-54.3,93.3,16,22.7,7.1h0Z" inkscape:label="Quadra S1"/>
        <path id="path13988" class="st28" d="M3439.9,4090.8l-18.8,3.7-105.3-65.5-3.1-15.9,119.9-173.3,18.8-3.4,99.9,64.6,4.5,16.6-115.8,173.1h0Z" inkscape:label="Quadra R1"/>
        <path id="path4534" class="st28" d="M3178.5,3934.8l5.9,16.7,82.1,54.8,23.6-5.2,215.7-315.8v-10.4c0,0-4.2-7.8-4.2-7.8l-8.7-5.5-109.7-12.1-9.2,2.1-7.8,4.8-7,6.8-180.7,271.6h0Z" inkscape:label="Quadra Q1"/>
        <path id="path15122" class="st28" d="M3713.4,4285.7l90.6-137.5,268.1,187.6.2,5.9,1.9,6,2.3,12.8-1.6,27.2-2.1,9.4-1.1,5.8v12.2l3.4,8.7,5,10.7,1.2,7.1.4,7.9-.9,59,2.5,14-370-236.8h0Z" inkscape:label="Quadra 1" sodipodi:nodetypes="ccccccccccccccccc"/>
        <path id="path15125" class="st28" d="M4074.9,4321.2l-263.8-184.3,330.5-491.5,245.1,49.3-21.6,36.4-10.5,69.4,3.2,38.3-19,62.1-32.2,58.3-6.1,24.1-11.9,15.8-17.2-4.1-15.1-8.8-25.7-3-12.9,3.3-12.9,8.5-11.5,10.9-7.5,11.3-4.8,9.6-10.2,28.7-33.3,99.5-24.7,90.9-11.7,33.1-5.1,8.9-8.1,9.8-8.3,12.3-4.7,11v.2Z" inkscape:label="Ãƒrea"/>
        <path id="path15128" class="st28" d="M3478.4,3499.7l639.7,138.7-33.9,52.7-23.7,31.3-90.8,140.2-14.7,1.9-81.1-59.4-2.2-15.3,69-101,8.9-15.4-540.4-71.3,69.2-102.3h0Z" inkscape:label="Ãƒrea/Quadra S4" sodipodi:nodetypes="cccccccccccc"/>
      </g>
    </g>
    <g id="g1009" inkscape:label="Setor UniversitÃƒÂ¡rio">
      <g id="g3647" inkscape:label="TerritÃƒÂ³rio 19">
        <path id="path651" class="st15" d="M1184.4,7166.9l5.2.2,32.6-51.8,64.2-116.3,4.6-20.9,41.4-76.3-.6-5.6-2.6-4-5.9.8-13,7.2-37.5,27.8-15.1,2.8-34.8,22.3,1.3,2-32.1,18.7-23,15.1-8,13.3,1.1,24.5,14.9,87.1,7.1,52.9h.1Z" inkscape:label="Quadra 119" sodipodi:nodetypes="cccccccccccccccccccc"/>
        <path id="path753" class="st15" d="M1004.6,6827.6l-14.9,9.2,4.7,49.5,9.4,11.1,132.8,68.2,13.1-5.1,82-153.9-4.8-9-222.3,30h0Z" inkscape:label="Quadra 118"/>
        <path id="path645" class="st15" d="M962.8,7287.2l9.2.5,151.9-284.2v-2.6c.1,0-3.2-13.8-3.2-13.8l-129.6-67.9-10.7,1.6-100.2,185.1-.6,18.1,83.1,163.1Z" inkscape:label="Quadra 117"/>
        <path id="path643" class="st15" d="M1017.1,7529.9l162.3-300.7v-7.4l-30.9-181.1-4.7-6.3-6.6-.6-4.2,2.3-147.1,275.7-2.4,9.6-.7,13.2,34.4,195.3h0Z" inkscape:label="Quadra 114"/>
      </g>
      <g id="g3656" inkscape:label="TerritÃƒÂ³rio 18">
        <path id="path641" class="st5" d="M769.4,7646.1h10.5l168.1-316.3,1.1-21.6-81.1-161.3-11.2,1.7-164.7,307-3.3,10.8-.7,12.1,81.2,167.6h0Z" inkscape:label="Quadra 111"/>
        <path id="path639" class="st5" d="M806.3,7912.5l-5.6-2-22.1-192.3v-4.2l3.6-19,5.7-15.2,160.5-298.8,10.6.6,32.1,190.2-184.8,340.6h0Z" inkscape:label="Quadra 110"/>
        <path id="path637" class="st5" d="M655.5,7792.9h1.5l49.9-15.6,7.5-6.2,35.7-58.6,3.9-5.1,6.8-15.6-3.4-22.9-24.1-51.2-22.3-44.2-3.8,2-39.1-81.3,1.5-3.3-24.6-32.5h-1.8l-2.1.6-7.4-15.5-1.1-1.2h-1c0,.1-17.8-18.7-17.8-18.7l-.6.5h-1.3c0-.1-4.8,3.8-4.8,3.8l-1.2,2.5,9.6,70h1.8c0,0,20.7,205.9,20.7,205.9l2.9,49.4,4.9,31,9.7,6.2h0Z" inkscape:label="Quadra 109"/>
        <path id="path635" class="st5" d="M644.7,7821.4l58.8-12.4,3.8,5.1,26-8.4,31.8-4.8,9.4,96.9,2,26.5.4,26.9-16.4,32.5-2.2,15-12.9,23.2-7.4,6.4,1.9,3.5-23.4,16.7-14.6,7.1-2.5-4.8-2.8.7-6.3,3.9-20.4,2.3-4.9-44.1h1c0-.1-8.6-77.3-8.6-77.3l-1-.4-12.1-114.6h.1Z" inkscape:label="Quadra 105"/>
        <path id="path765" class="st5" d="M720.3,7770.9l1,4.2,2.7.5,35.7,1.2,6.9-6.6,1.9-61.8-.4-3-1.1-.5h-3.6l-2.4,1.8-40.7,63v1.3h0Z" inkscape:label="PraÃƒÂ§a" sodipodi:nodetypes="cccccccccccc"/>
        <path id="path2065" class="st5" d="M672.2,8067.9l22.6-4.2,18.7-3,3.6,12.9,8.2,2.1-11.8,29.6-18.5,40.5-13.2-4.9-4.4-32.7-.4-9.4-3.3-13.3,1.3-.5-2.9-17.3h0Z" inkscape:label="Ãƒrea" sodipodi:nodetypes="ccccccccccccc"/>
      </g>
      <g id="g3619" inkscape:label="TerritÃƒÂ³rio 17">
        <path id="path763" class="st30" d="M1178.9,6943.4l-.5,6.6,2.9,4.3,6.3.7,156.5-92.4,36.9-23.5,11.2-9.7,223-411.4v-1.1l-3.5-7.9-151.8,33.3-20.5,14.2-260.6,486.9h0Z" inkscape:label="Quadra N1"/>
        <path id="path755" class="st30" d="M968.2,6712.1l15.7-14.1,327.3-71.6,6.5,9.2v1.1c0,0-58.9,113.8-58.9,113.8l-15.9,15.1-14.1,6.7-239.1,32.7-9.5-14.5-11.9-78.2h0Z" inkscape:label="Quadra M1"/>
        <path id="path829" class="st30" d="M1688.3,6202l9.9,6.5,10.9,17.1v12.6l-52.4,107.3-20.7,15.6-189,45-17.3-11.9,54.9-132.3,8.7-16.8,194.9-43.2h0Z" inkscape:label="Quadra K"/>
        <path id="path761" class="st30" d="M987.9,6567l.2-15.5,315.1-72.4,12.1,10.1,21.7,99.7-9,8.4-344.4,73.8-7.4-8.7-13.3-80.6,6.1-9.7,19-5.3h0Z" inkscape:label="Quadra I2"/>
        <path id="path827" class="st30" d="M1399.8,6267.1l12.7,2.7,12.2,9,5.3,10,2.3,13.8-13.4,37.9-29,70.7-19.3,14.1-366.3,84.3-11.1-12.6-11.8-113.8,8.8-23.5,409.4-92.6h0Z" inkscape:label="Quadra H1" sodipodi:nodetypes="ccccccccccccc"/>
        <path id="path767" class="st30" d="M1415.7,6453.4l-6.3-7.7-63.8,16.4-4.6,3.7-4.2,5v6.1l14.5,70.6,3,4.7,6.1,1.3,4.9-2.5,50.3-97.7h.1Z" inkscape:label="Ãƒrea"/>
      </g>
      <g id="g3632" inkscape:label="TerritÃƒÂ³rio 16">
        <path id="path751" class="st27" d="M768.4,6923.3l11.7,9.8,175.7-42,11-29.3-13.4-118.3-14.3-13.1-173.4,56.8-10.5,10,13.3,126.1h0Z" inkscape:label="Quadra J1"/>
        <path id="path749" class="st27" d="M556.4,6966.9l11.2,9,171.2-40.8,7.9-13.9-10.7-118.7-11.9-5.3-169.8,47.6-8.6,8.3,10.7,113.9h0Z" inkscape:label="Quadra I1"/>
        <path id="path759" class="st27" d="M777.5,6745.8l1.5,5.8,162.1-44.8,7.3-12.2-7.1-108-18.6-5.7-165.9,49-9.5,14.3,11.4,101.5h18.7Z" inkscape:label="Quadra H"/>
        <path id="path757" class="st27" d="M529.9,6704.2l5.2-5.4,177.5-53.6,7.9,2.1,11,111.8-10.5,11.1-170.7,47.6-10.3-3.8-10.1-109.9h0Z" inkscape:label="Quadra G"/>
        <path id="path649" class="st27" d="M583.9,7248.3l1.3.5h2.6c0,0,145.2-273.1,145.2-273.1v-1.5l-1-2.7-3.3-3.4h-5.2c0,0-156.5,32.5-156.5,32.5l-6.2,8.3,23.1,239.3h0Z" inkscape:label="Quadra 116"/>
        <path id="path647" class="st27" d="M582.7,7306.9l-2.6,9.3-.6,43.3,6.1,16.6,11.8,14.3,60.8,56.5,11.1-1.3,277.7-520.7-7.9-4.2-166.7,37.4-7.8,7.4-181.8,341.3h0Z" inkscape:label="Quadra 115" sodipodi:nodetypes="cccccccccccc"/>
      </g>
      <g id="g3587" inkscape:label="TerritÃƒÂ³rio 15">
        <path id="path837" class="st0" d="M1829.5,5999.9l-68.4,140.9-21.1,21.5-245.6,56.6-6.6-8.5-27.3-119,5-13,364-78.6h0Z" inkscape:label="Quadra F1"/>
        <path id="path835" class="st0" d="M1456.3,6215.7l-9.1,15-459.5,107.8-13.9-11.7-6.6-121,5.5-10.1,443.7-102.7,12,6.7,27.9,116h0Z" inkscape:label="Quadra E2"/>
        <path id="path847" class="st0" d="M1803.4,5825.8l10.9-1.3,20.1,4.9,17.5,11.9,8.2,16.7,2,26.7-.9,23.4-6.1,20.4-10.7,42.3-151.1,35-11.7-7.9-27.3-128.7,5.7-14.7,143.7-28.6h-.1Z" inkscape:label="Quadra C2" sodipodi:nodetypes="cccccccccccccc"/>
        <path id="path845" class="st0" d="M1620.1,5868.5l14.3,8.4,24.4,124.6-6.7,11.5-191,44.9-13.4-12.6-26.8-116.4,3.7-16.6,195.4-43.6h0Z" inkscape:label="Quadra B2"/>
        <path id="path843" class="st0" d="M1421.8,6048.5l-6.6,16.7-445.1,102.9-14.3-13.9-12.9-119.8,8.8-18,427.9-92.5,15.8,12.4,26.3,112.2h0Z" inkscape:label="Quadra A2"/>
      </g>
      <g id="g3598" inkscape:label="TerritÃƒÂ³rio 14">
        <path id="path825" class="st1" d="M726.6,6447.1l6.8-8.4,169-49.4,10.1,3.7,10.4,107.9-5.5,10.8-170.6,50.7-11-8.7-9.3-106.5h0Z" inkscape:label="Quadra F"/>
        <path id="path823" class="st1" d="M523.6,6614.8l12.2,7.8,169.1-49,9.7-12.9-10.3-103.6-10.7-6.2-172.4,50.7-6.1,8.1,8.5,105.1h0Z" inkscape:label="Quadra E1"/>
        <path id="path833" class="st1" d="M915.3,6351.7l-8.9,11.8-175.3,51.2-10.1-12.3-15.5-165.4,7.4-12.2,172.9-34.3,14.7,13.3,14.9,147.8h0Z" inkscape:label="Quadra D1"/>
        <path id="path831" class="st1" d="M695.7,6417.8l-5.5,11.7-174,50.6-10.9-13-15.9-177.8,9.4-11.6,169.2-32.5,11.5,6.7,16.2,166h.1Z" inkscape:label="Quadra C1"/>
        <path id="path841" class="st1" d="M882.6,6049.3l11,107-6.7,9.4-163.8,32-15.1-9.5-8.7-95.4,6.6-12.9,167.5-38.7,9.2,8.2h0Z" inkscape:label="Quadra B1"/>
        <path id="path839" class="st1" d="M477.2,6227.8l15.7-6.3,25.5-13.5,24.4-28.3,7.8-10.9,63.7-45.9,44.6-26.2,13.7,6.3,11.3,96.9-6.4,8.8-194.5,44.8-3.9-2.7-3.8-3.7-3.2-5-1.2-8.1,6.1-6.3h.1Z" inkscape:label="Quadra A1"/>
      </g>
    </g>
    <g id="g2590" inkscape:label="Setor Morais">
      <g id="g13594" inkscape:label="TerritÃƒÂ³rio 24">
        <path id="path13602" class="st23" d="M3254.4,3629.8l13.8,20.4-157.4,242.1-20.2,4.2-103.7-64.4-3.6-14.7,121-183.3,6.1-7.7,7.3-5.6,8.4-3.6,7.1-1.3h13.6l107.8,13.7h0Z" inkscape:label="Quadra P"/>
        <path id="path13597" class="st23" d="M2937.8,3726.3l41.2,27.9-29.5,45.4-15.5,1.1-32.4-19.9,36.2-54.6h0Z" inkscape:label="Quadra O"/>
        <path id="path15151" class="st23" d="M2951.6,3850.1l20.4-4.9,112.6,67.9,4.4,20.7-137,191.7-9.7-.6-117.6-76.2v-.6l126.9-198.1h0Z" inkscape:label="Quadra F"/>
        <path id="path15153" class="st23" d="M2801.2,3762.7l14-2.9,105.3,65.1,3.9,17.6-121.9,178.3-19.4-1.8-97.7-66.9-4.2-11.2,119.7-178h0Z" inkscape:label="Quadra D"/>
        <path id="path15155" class="st23" d="M2647.2,3670.3l13.4-4,111.4,67,1,17.4-113.6,168.5h-14.1l-102.9-69.3-5-15.6v-.9l109.9-163.1h0Z" inkscape:label="Quadra B"/>
        <path id="path13591" class="st23" d="M2829.7,3736.6l-2.3-13.4-24.9-17.4,95.8-144.7,115.7-144.1,10.2-.8,45.7,2,13.3-1,30.9,2.5,266.3,56-88,131.1-203.3-22.3-110,169.6-41.2-27.9-36.2,54.6-71.9-44.3h-.1Z" inkscape:label="Ãƒrea" sodipodi:nodetypes="cccccccccccccccc"/>
        <path id="path13599" class="st23" d="M3013.9,3417.1l-115.7,144.1-95.8,144.7-18.7,2.2-103.9-63.5-4.9-15.9,112.4-168.1,43.8-20.6,95.1-16.5,87.5-6.3h0Z" inkscape:label="Ãƒrea"/>
      </g>
      <g id="g3057" inkscape:label="TerritÃƒÂ³rio 23">
        <path id="path3045" class="st14" d="M2807.7,4078.1l11.9-2.8,106.8,71.4,4.1,14.2-118.2,179.9-16.4,4.3-103.3-68.7-3.1-18.3,118.3-180h0Z" inkscape:label="Quadra E"/>
        <path id="path3047" class="st14" d="M2662.8,3974.7h13.2c0-.1,101.1,68.7,101.1,68.7l3.9,15.7-117.4,179.5-19.3,3.8-104.9-69.8-.5-13.5,123.8-184.4h0Z" inkscape:label="Quadra C"/>
        <path id="path3049" class="st14" d="M2515.3,3873.9h15.2l103.9,69.8,3.8,13.5-128.1,182.6-16.1,1.9-105.8-70.3-2.2-16.9,129.5-180.5h-.1Z" inkscape:label="Quadra A"/>
        <path id="path3039" class="st14" d="M2365.5,4103.3l18.1-5.3,100.2,68.3,2.1,21.7-232.6,352.2-13.3,5.5-120.8-61.5v-19.6l246.3-361.2h0Z" inkscape:label="Quadra 34"/>
        <path id="path3041" class="st14" d="M2514.6,4199.3l11.6-3.4,103.8,70.2,2.2,22.8-219.3,326.8-15,5.9-116.7-59.1-2.3-14.8,36.3-49.3,199.2-299.1h.1Z" inkscape:label="Quadra 33"/>
        <path id="path3043" class="st14" d="M2654,4299.5l16.4-6,105.3,71.4,1.1,14.7-204.6,310.5-16.3,7.2-115.6-57.8-1-17.2,214.8-322.8h0Z" inkscape:label="Quadra 32"/>
      </g>
      <g id="g3909" inkscape:label="TerritÃƒÂ³rio 21">
        <path id="path985" class="st2" d="M2411,4669.5l13.2-1.2,109.2,55,7.2,18.7-97.2,148.4h-15l-104.9-68.6-2.6-17.2,90.1-135h0Z" inkscape:label="Quadra 15"/>
        <path id="path3194" class="st2" d="M2293.6,4837.5h10.7l106,68.5,4.2,28.7-85.9,133.8h-20.6l-105.5-71.4-3.8-16.6,94.9-142.9h0Z" inkscape:label="Quadra 14"/>
        <path id="path3892" class="st2" d="M2178,5019.1l11.3-2.4,108.4,70.8,2.3,13.7-156.2,237.2h-9l-26.3-5.8-24.5-4.7-22.9-2.1h-3.5l-19.6,1.5-12.7-5.1-27.2-18.8,1.1-14.5,178.7-269.9h0Z" inkscape:label="Quadra 13"/>
        <path id="path3894" class="st2" d="M2241.6,4600.3l18.1-8.2,110.1,56.8,1.7,21.4-195.8,297.9-17.7,1.4-103.8-67.5-1.1-19.8,188.5-282h0Z" inkscape:label="Quadra 11"/>
        <path id="path3896" class="st2" d="M2034.4,4924.5h16.3l99.7,65.9,4.5,19.1-177.1,268.6-18,2.2-105.2-71.2,1-19.5,178.7-265.1h0Z" inkscape:label="Quadra 10"/>
        <path id="path3898" class="st2" d="M2093.7,4506.3l124.1,64.4,1.8,10.1-189.4,291.2-16.4,2.5-106.2-71.2-2.2-18.9,179.2-266.6,9.2-11.4h0Z" inkscape:label="Quadra 6"/>
        <path id="path3900" class="st2" d="M1882.5,4822.1h15.3l103,69.1,5.2,22.5-175,262-21.3,2.2-104.5-71.6-2.3-18.6,179.7-265.5h0Z" inkscape:label="Quadra 5"/>
      </g>
      <g id="g9082" inkscape:label="TerritÃƒÂ³rio 20">
        <path id="path9055" class="st19" d="M2011.5,5561.4h9.4c0,0,1.1,1,1.1,1l2.2,3.8.6,10.6-84.1,101.9-40.7,48.8-16.9,10.4-33.3,15.6-12.2-5-26.7-119.5v-2l9.3-15.9,191.2-49.7h0Z" inkscape:label="Quadra 23"/>
        <path id="path9057" class="st19" d="M1777.6,5618.8h1.4l15.8,10,27.4,124-13,19.1-221.1,49-14.7-7.8-29.1-129.3,8.5-14.5,224.9-50.5h0Z" inkscape:label="Quadra 22"/>
        <path id="path9059" class="st19" d="M1969.2,5328.2l11.5-2,19.8,9.2,12.4,20.2,2.5,13.8,30.2,144.3-6.1,8.2-222.9,52.1-15.6-13.5-26.7-119.4,6.1-16.1,146.7-31.1,42.2-65.6h0Z" inkscape:label="Quadra 12"/>
        <path id="path9061" class="st19" d="M1819.5,5231.7l16.9-2.9,109.7,72.5,1.9,15.8-30.4,46.9-16.9,12.8-129.9,30.2-22.5-3-47.3-51.9,2.1-12.5,116.3-107.8h0Z" inkscape:label="Quadra 9"/>
        <path id="path9063" class="st19" d="M1669.1,5367.2l13,.5,56.7,57.3,12.7,20.7,28.3,123.1-7.5,13.7-106.5,24.5-13.3-11.8-21-98.5-40.3-42.1v-14.8c0,0,77.8-72.6,77.8-72.6h0Z" inkscape:label="Quadra 8"/>
        <path id="path9065" class="st19" d="M1551.5,5472.3l15.6-3.3,40.1,42.8,20.9,91.9-7.4,13.5-51.8,9.6-47.3-23.9-13.6-36.1-15.4-35.9,9.2-12.9,49.7-45.9h0Z" inkscape:label="Quadra 7"/>
        <path id="path9067" class="st19" d="M1672,5122.2l10.2.7,113.2,78.7,1.8,9.2-166.5,155.3-17.7-1.1-85.3-95.8-1-13.1,145.3-133.9h0Z" inkscape:label="Quadra 4"/>
        <path id="path9069" class="st19" d="M1493.6,5287.2l17.9-.5,89.2,93.8-.5,17.6-107.1,98.8-18.2-2-19.8-33.4-20.7-30.3-20.7-27.2-12.6-13.1,3.8-20.6,89-83h0Z" inkscape:label="Quadra 3"/>
        <path id="path9071" class="st19" d="M2043.5,5350.8l44.2-3.3,25.7,1.1,27.8,10.9-4.3,10.6-67.9,112.4-5.7-.5-25.1-119.4,5.3-11.7h0Z" inkscape:label="Ãƒrea"/>
      </g>
      <g id="g2530" inkscape:label="TerritÃƒÂ³rio 13">
        <path id="path2523" class="st12" d="M1494.7,5685.5l21.2,13.9,26.5,117-7.5,13.6-106.5,25.3-12.6-7.6-28.1-123.5,8.2-16.4,98.8-22.2h0Z" inkscape:label="Quadra 21"/>
        <path id="path2521" class="st12" d="M1337,5721.3l14.6,5,30,124.7-10.6,15.6-317.1,70.9-9.2-5.1-35.2-121.2,12.4-17.1,315.1-73h0Z" inkscape:label="Quadra 20"/>
        <path id="path2299" class="st12" d="M928.1,5808.9l34.7-9.1,15,10.9,30.8,125.8-9.2,10.3-149.1,38.9-32.3,1.8-18.1-42.4-.6-19.7,128.9-116.5h0Z" inkscape:label="Quadra 19"/>
        <path id="path2519" class="st12" d="M1364.4,5409.3h17.9l31.3,39.5,26.4,39.8,31.5,61.1,30,78.2-6.7,15.9-108.4,26.3-15.9-7.6-10.9-41.8-22.3-43.9-25.3-41-29.5-37.1,5.2-18.8,76.7-70.6h0Z" inkscape:label="Quadra 2"/>
        <path id="path2517" class="st12" d="M1239.3,5519l10-.9,23.7,30.5,20.7,24.2,13.3,23.5,26.5,68.4-9,17.5-261.7,59.9-35,6.7-9.1-17.2,28.1-32,192.5-180.4h0Z" inkscape:label="Quadra 1"/>
        <path id="path9095" class="st12" d="M737.5,5984l28.5-28.3,3.8-1.9h3.6c0,0,3.3,1.6,3.3,1.6l1.7,1.7,19.9,38.9v2.1l-.9,1.9-1.6,1.5-45,11.2-27.8,5.5-16.8,1.8-1.9-1.1-.9-1.6.4-2.1,8.7-8.8,25-22.3h0Z" inkscape:label="Ãƒrea"/>
      </g>
    </g>
    <g id="g2555" inkscape:label="Parque Industrial de GoiÃƒÂ¢nia">
      <g id="g11210" inkscape:label="TerritÃƒÂ³rio 5">
        <path id="path11266" class="st26" d="M410.2,4644.3l-249.1,173.1-4.1-16.4-1.1-9.7-6.6-13.4-7.3-9.4-1.5-10.3,15.3-37.4,2.8-13.3,2.1-15.7-1.1-10.8-20.5-27.2-11.4-11-9.7-5-3.7-3.3v-.9l11.1-14.6,15-33.2,1-12.4-5.4-11.8-10.5-10.6-4.7-4-1.5-6.2,5.6-10,7.6-6.4,4.7-10.2,2.2-10.8,3.1-8.5.7-25.7,2-11.5,4.8-7.5,4.9-45.7-2.1-32.9-3.2-32.2-6.4-56.4-8.5-43-3.8-30.4,3.8-24.3-.5-28.8-3.8-21.1-14.9-26.9-11.3-23.7-7.9-21.4-8-23.3v-10.9l8.2-11.4,9.4-10.6,7.2-12,13-14.2,11.3-14,13.3-18.4v-1.2l14.2-20.9,3.7-12.7.7-11.7,6.9-16.1,2.1-8.6,2.1-13.2,5.5-13.5,12.1-9.4,12.3-10.9,8.9-10.2,4.3-12.4,1.8-15.8,3.1-18.3,5-16,6.8-14.5,2.7-14.8,4.9-14.9,6.1-10.5,5.1-10.7,6.8-11.8,2.2-19.3v-8.1l-.5-13.1-2.7-18.3v-1.3l2.7-16.9.6-2.1,2.1-5.2,5.9-11.5,4.7-17.2,1.6-11.5,3.7-12.6v-8.6l15.5,1.1,2.6,18.1,3.3,65.2-1.8,44.9-8.7,37.7-13.6,30.5-12.1,17.8,18.7,9.4,13-18.9,10-22.2,7.5-23.8,6.3-34.9v-24.9l-1.5-23.8-2.6-24.2-3.3-20.6v-15.4l5-21.1,53.6-1.7,42.2-.5,16.5-1.1,10.7,16.4,7.9,78.5,9.6,47.5-1.7,25.9-2.3,16.1-183.5,345-7.1,21.8-3.9,30.5,12.3,187.5,13.6,132.8,16.9,61.1,13.8,25.4,87.4,130.2h.3Z" inkscape:label="Quadra 18"/>
        <path id="path12037" class="st26" d="M624.9,4376.2l16.1,4.3,84,123.1-3.7,12.3-22.8,15.6-182.6,122.6-10.8,7.1-6.1,3.6-8.7,4.1h-11.3l-6-3.3-6.9-6.9-23.1-35-50.9-71,5.6-22.8,227.1-154h0Z" inkscape:label="Quadra 17"/>
        <path id="path12039" class="st26" d="M521.8,4202.4l5.3,2.7,18.8,28.2,15.4,23.8,31.6,47.5,15.7,23-2,14.4-39.3,26.5-24.8,17.3-25.3,16.6-24.6,17.9-25.1,17-24.9,17.4-69.2,46.7-14.1-2.4-15-29.2-7.7-23.5-4.3-39.5-1.8-21.3-5.2-39.5v-3.2l2.9-8.9,97.3-66.1,24.9-17.1,25.3-17.3,46-30.9h0Z" inkscape:label="Quadra 15"/>
        <path id="path12035" class="st26" d="M444,3823.7l16.3-2.5,14.2,23.8,33.8,330.1-.2,1.1-8.6,22.3-149.7,94-21,12.1-6.9-10.5-4.3-17.3-1.5-22.6-12.8-97.5-.6-16.2v-22.3l1.1-6.4,5.8-18.7,6.5-17.3,6.1-12.9,107.5-217.4,14.3-21.6h0Z" inkscape:label="Quadra 13"/>
      </g>
      <g id="territorio-3">
        <path id="path3338" class="st3" d="M883.1,3921.8l8.4,14-40.1,218.5-14.4,6.6-292.8-117.7-9-12.7-4.9-60.7,7.6-14.7,345.2-33.2Z" inkscape:label="Quadra 12" sodipodi:nodetypes="ccccccccc"/>
        <path id="path3342" class="st3" d="M922.4,3925l10.9-11.1,95.7-7.7,12.4,2.4,9.8,10,3.5,10-41.7,267.9-7.9,10.6-9.4,8.1-14.4-3.5-93.7-40.6-6.6-21,41.3-225h0Z" inkscape:label="Quadra 11"/>
        <path id="path3340" class="st3" d="M1152.7,3674.5l64.9,21.2,74.2,31.8,28.9,11.3,6.2,17.9-.2,2.2-120.1,531.8-16.3,3.6-23.8-7.2-115.5-41.7-6.2-8.2-1-21.1.6-11.1,88.4-514,20.2-16.5h0Z" inkscape:label="Quadra 10/13"/>
        <path id="quadra-9" class="st3" d="M986.8,3666l32.1-1.7,37.3-.8,30.1,1.9,11.5,11.7v1.1l-26.8,173.6-4.3,7.2-5.1,5.4-6.7,1.3-48.4,3.2-469.3,43.8-12.8-11.7-11.6-125.6-4.9-48.3v-2.4l9.6-10.4,77.1-6.3,352.8-35.3,39.4-6.8h0Z"/>
        <g id="text4002" class="st34">
          <g class="st34">
            <text class="st35" transform="translate(798.4 3791.4)"><tspan x="0" y="0">9</tspan></text>
          </g>
        </g>
        <g id="text1151" class="st34" inkscape:label="R. L-8">
          <g class="st34">
            <g class="st34">
              <text class="st36" transform="translate(1261.3 4112) rotate(-77)"><tspan x="0" y="0">R. L-8</tspan></text>
            </g>
          </g>
        </g>
        <g id="text2735" class="st34">
          <g class="st34">
            <g class="st34">
              <text class="st36" transform="translate(629.4 4099.8) rotate(22.6)"><tspan x="0" y="0">Av. Anápolis</tspan></text>
            </g>
          </g>
        </g>
        <g id="text2735-3" class="st34">
          <g class="st34">
            <g class="st34">
              <text class="st36" transform="translate(987.5 4241.3) rotate(22.6)"><tspan x="0" y="0">Av. Anápolis</tspan></text>
            </g>
          </g>
        </g>
        <g id="text1151-7" class="st34" inkscape:label="R. L-8">
          <g class="st34">
            <g class="st34">
              <text class="st36" transform="translate(886 4059.9) rotate(-79.4)"><tspan x="0" y="0">R. 5</tspan></text>
            </g>
          </g>
        </g>
        <g id="text1151-7-0" class="st34" inkscape:label="R. L-8">
          <g class="st34">
            <g class="st34">
              <text class="st36" transform="translate(669.8 3925.8) rotate(-6)"><tspan x="0" y="0">R. 6</tspan></text>
            </g>
          </g>
        </g>
        <g id="text1151-7-0-3" class="st34" inkscape:label="R. L-8">
          <g class="st34">
            <g class="st34">
              <text class="st36" transform="translate(878.3 3904.9) rotate(-6)"><tspan x="0" y="0">R. 6</tspan></text>
            </g>
          </g>
        </g>
        <g id="text1151-7-2" class="st34" inkscape:label="R. L-8">
          <g class="st34">
            <g class="st34">
              <text class="st36" transform="translate(494.5 3854.6) rotate(83.9)"><tspan x="0" y="0">R. 1</tspan></text>
            </g>
          </g>
        </g>
        <g id="text1151-7-3" class="st34" inkscape:label="R. L-8">
          <g class="st34">
            <g class="st34">
              <text class="st36" transform="translate(1051.1 4083.3) rotate(-79.4)"><tspan x="0" y="0">R. 7</tspan></text>
            </g>
          </g>
        </g>
        <g id="text1151-7-3-9" class="st34" inkscape:label="R. L-8">
          <g class="st34">
            <g class="st34">
              <text class="st36" transform="translate(1101.3 3781.8) rotate(-79.4)"><tspan x="0" y="0">R. 7</tspan></text>
            </g>
          </g>
        </g>
        <g id="text1151-7-3-9-0" class="st34" inkscape:label="R. L-8">
          <g class="st34">
            <g class="st34">
              <text class="st36" transform="translate(1143.3 3542.1) rotate(-79.4)"><tspan x="0" y="0">R. 7</tspan></text>
            </g>
          </g>
        </g>
        <g id="text1151-7-3-9-2" class="st34" inkscape:label="R. L-8">
          <g class="st34">
            <g class="st34">
              <text class="st37" transform="translate(583.3 3596.4) rotate(-95.6)"><tspan x="0" y="0">Viela 1</tspan></text>
            </g>
          </g>
        </g>
        <g id="text1151-7-3-9-2-8" class="st34" inkscape:label="R. L-8">
          <g class="st34">
            <g class="st34">
              <text class="st37" transform="translate(679.5 3584) rotate(-95.6)"><tspan x="0" y="0">Viela 2</tspan></text>
            </g>
          </g>
        </g>
      </g>
      <g id="g26928" inkscape:label="TerritÃƒÂ³rio 2">
        <path id="path26918" class="st24" d="M580,3494.1l77.2-6.8,16.6,173.2-77.7,7.7-17-172.4.9-1.6h0Z" inkscape:label="Quadra 8B"/>
        <path id="path26916" class="st24" d="M559.5,3478.1l118.1-10.2,11.9,183,7.7,7.4,139.4-14.5,9-6.9-4.3-54.2-9.6-108.9v-30.3l-154.7,14.9-118.5,11.7-79.5,5.5,15,192.9,6,6.5,78.2-8.2-18.9-188.7h0Z" inkscape:label="Quadra 8/A/C" sodipodi:nodetypes="cccccccccccccccc"/>
        <path id="path26920" class="st24" d="M872.2,3432.9l210.1-15,59.8,10.5-37.2,187.2-14.1,11-41.4-3.4-64.6,2.9-78.1,6.9-17.8-9.7-16.6-190.4h0Z" inkscape:label="Quadra 7"/>
        <path id="path26922" class="st24" d="M1182.1,3430.1h1.1l159.5,48.4,45.8,11-42.8,187.8-22.5,9.7-27.6-11-33.1-12.5-54.5-17-27.8-7.4-22.7-2.2-3.4-5.9-4.1-9.7,32-191.1h0Z" inkscape:label="Quadra 6"/>
      </g>
      <g id="g5238" inkscape:label="TerritÃƒÂ³rio 1">
        <g id="g3067">
          <path id="path393" class="st31" d="M1072,3375.3l-77,2-99.9,11.4-64,9.2" vector-effect="none"/>
          <path id="path395" class="st31" d="M1154.6,3403.8l135.6,33.6,43.2,17.8" sodipodi:nodetypes="ccc" vector-effect="none"/>
          <path id="path397" class="st31" d="M1078.2,3319.1l276.5,24.5" vector-effect="none"/>
          <path id="path399" class="st31" d="M1329.6,3423.6l-59.5-22.3-107.8-20.2-90.3-5.7" sodipodi:nodetypes="cccc" vector-effect="none"/>
          <path id="path403" class="st31" d="M511.8,3451.1l-3.6-24.2" vector-effect="none"/>
          <path id="path407" class="st31" d="M241.2,3481.7l93.8-11.1,56.7-5.4,53.6-6.6,66.5-7.5,41.8-4.7,106.6-10.5,121.1-14.5,57.8-4.7,105.1-13.7,116.7-6.7,93.7,7.4" sodipodi:nodetypes="cccccccccccc" vector-effect="none"/>
          <path id="path409" class="st31" d="M831,3398l-69.2,6.7-58.3,6.2-62.7,7.2-85.6,5-46.9,3.7-35.3,2.8-29.1,2.2-59.9,7-48.2,5.3-65.8,7.9-38.4,3.3" sodipodi:nodetypes="cccccccccccc" vector-effect="none"/>
          <path id="path625" class="st31" d="M235.9,3482.2l-2.6-30.4" vector-effect="none"/>
          <path id="path631" class="st31" d="M1245.5,3237.7l-6.5-95.4" vector-effect="none"/>
          <path id="path633" class="st31" d="M443.7,3431.9l-1.9-113.5" vector-effect="none"/>
          <path id="path635-6" class="st31" d="M1072,3375.3l6.2-56.2,2.1-66.3" vector-effect="none"/>
          <path id="path637-7" class="st31" d="M1298.3,3247l-52.8-9.3" vector-effect="none"/>
          <path id="path639-5" class="st31" d="M1298.3,3247l10.8-138.6" vector-effect="none"/>
          <path id="path641-3" class="st31" d="M1367.5,3257.3l-69.2-10.3" vector-effect="none"/>
          <path id="path643-5" class="st31" d="M1367.5,3257.3l25.7-148.6" vector-effect="none"/>
          <path id="path647-6" class="st31" d="M1239.1,3142.3l25.7-16.5,44.4-17.4" vector-effect="none"/>
          <path id="path649-2" class="st31" d="M1309.1,3108.4l31.8-14.9,28.2-9.8,11.1.8,9,5.8,3,8.9,1,9.5" vector-effect="none"/>
          <path id="path651-9" class="st31" d="M1329.6,3423.6l25.1-79.9,12.9-86.3" vector-effect="none"/>
          <path id="path653" class="st31" d="M881.3,3273l-26.5,52.6-16.5,33.4-6.6,30.7-.7,8.4" vector-effect="none"/>
          <path id="path661" class="st31" d="M339.9,3310.4l101.9,7.9" vector-effect="none"/>
          <path id="path667" class="st31" d="M1120.3,3238.6l26.9,15.9,21.3,6.7,51.8,6.3" vector-effect="none"/>
          <path id="path671" class="st31" d="M969.1,3291.1l16.6,1h22.2l30.6-12.6,41.8-26.7" vector-effect="none"/>
          <path id="path673" class="st31" d="M507.7,3092.5l12.1-1.5,22.9-7,15.6-15.5,6.3-12.4,35.7-69.9" vector-effect="none"/>
          <path id="path675" class="st31" d="M441.9,3318.3l16.2-77.9,16-65.8,14.1-31,19.7-51" vector-effect="none"/>
          <path id="path679" class="st31" d="M507.7,3092.5l-7.7-17-74.7-43.4-40-12.6" vector-effect="none"/>
          <path id="path681" class="st31" d="M600.4,2986.2l5.2-10.1v-8.3l-5.3-5.1-9.3-3.2-7.3-2.5-6-3.2-11.9-40.6-1.3-14.6,4-15.8,11.3-23.5,61.5-109.1" vector-effect="none"/>
          <path id="path689" class="st31" d="M1080.3,3252.8l40-14.2,32-22,37.6-31.6,30.7-28.3,18.5-14.3" vector-effect="none"/>
          <path id="path693" class="st31" d="M488.1,3143.6l102.2,30.7,100.2,40.4" vector-effect="none"/>
          <path id="path695" class="st31" d="M425.3,3032.2l-58.9,123.1-20.3,67.9-2.1,40.7-4,46.5-6.1,121.9,1.8,11.9" vector-effect="none"/>
          <path id="path699" class="st31" d="M564.7,3056.1l28.2,7.9,189.1,84.8,5.1,44.6.7,22.1" vector-effect="none"/>
          <path id="path701" class="st31" d="M710,3305l17.3-32.5,31.1-43.1,8.4-8.3,21-5.5,27.4,9.7,15.8,10.8,50.3,36.9,30.7,4.5,30.8,5.8,26.3,7.8" vector-effect="none"/>
          <path id="path705" class="st31" d="M441.9,3318.3l117.6,1.3,97.7-11.2,52.9-3.5,83.5,7.9,61.3,12.6" vector-effect="none"/>
          <path id="path715" class="st31" d="M233.3,3451.8l-19.7-260.2,427-740.9" vector-effect="none"/>
          <path id="path725" class="st31" d="M640.6,2450.8l37.7,91.6,77.2,245.4-77.2,190.3,375.1,193.1,358.6-231.7" sodipodi:nodetypes="cccccc" vector-effect="none"/>
        </g>
        <path id="path5317" class="st24" d="M1082.6,3324.1l142.5,17.2,121.4,12.4-14.1,85.6-64.7-20.7-82.8-21-107.3-13.4,5-60h0Z" inkscape:label="Quadra 5"/>
        <path id="path6152" class="st24" d="M844,3397.6l26.1-110.7,6.3-6.2,30.7,4.5,30.8,5.8,26.3,7.8,16.6,1h22.2l30.6-12.6,41.9-26.7-11.3,122.2-220.2,14.8h0Z" inkscape:label="Quadra 4" sodipodi:nodetypes="cccccccccccc"/>
        <path id="path6150" class="st24" d="M470.5,3322.1l77.5,1.9,25.6-1.1,80.2-5.7,43.5-2.6,46.1-.4,47.9,3.7,48.6,7.3,2.5,7.5-16.3,70.3-166.2,18.8-66.1,6.7-21.4,2.6-30.3,1.8-67.4,6.9-6.1-7.4-4.3-29.4,1-70.5,5.2-10.3h0Z" inkscape:label="Quadra 3"/>
        <path id="path1059" class="st24" d="M750.6,3289.8l27.6,5.4,68,15.9,9.1-21.4,6.7-19.1-85.9-48.6-22.7,44.1-2.9,23.6h0Z" inkscape:label="Quadra 2" sodipodi:nodetypes="cccccccc"/>
        <path id="path5325" class="st24" d="M422.2,3042.1l14.1-6.8,54,29.4,6.5,14.5-24.3,45.1-15.7,38.5-6.6,19.1-5.3,19.7-4.3,18.6-3.7,19.7-2.8,20-4.6,41.8-76.6-3.7-5.7-8,6.2-48.1,4.6-21.8,5.2-21.4,11.9-43.5,6.8-21.1,16.5-45.4,23.6-46.6h0Z" inkscape:label="Quadra 2"/>
        <path id="path5327" class="st24" d="M352.8,3322.4l77.9,2.1,1.1,1.1,1.1,121.6-90.1,7.5-.5-128,10.7-4.3Z" inkscape:label="Quadra 1" sodipodi:nodetypes="ccccccc"/>
        <path id="path5315" class="st24" d="M1089.9,3256.4l23.8-7.4,19-6.3,6.2,3.5,2.6,8.4,8.2,7.9,44.7,5.1.8-7.5-41.4-3.9-6.4-5.3-3.1-11,13.8-6.9,16-11.8,50.6-48.3,20.7,10.5,1.5,50.3,3.3,6.3,5.9,5.3,3.4,2,104.5,20.8-12.3,75.6-268.3-28.2,6.4-59.1h0Z" inkscape:label="Quadra 5" sodipodi:nodetypes="ccccccccccccccccccccccc"/>
        <path id="path5323" class="st24" d="M698.9,3206.3l-4.2,6.3-26.2-15-161.3-59.5-19.6,38-4.7,15.3-2,12.2-5.3,33.1-2,32.3,4.4,26.9,8.7,5.4,67.4,1,33.5-1.8,30.2-4.4,125.9-5.5,3.4-26.1,23.1-45.6-35.7-20.3,10-18.1,2.7,7.6,10.9,6,5.5-1.7,14.2-32.8,2.8-8.7.9-4.4-2.1-6-76.1-30.7-129.1-63-21.3,28.2-19,7.6-23,45.6,163.3,64,25,14.3h-.2Z" inkscape:label="Quadra 2" sodipodi:nodetypes="ccccccccccccccccccccccccccccccccc"/>
        <path id="path5307" class="st24" d="M1438.8,2955.7l-26.3,133.9-29.2-7.8-11,1-17.1,3.9-105.9,50.5-18.1,14.5-56.2,54.8-13.8,10.8-23.9,11.4-23.7,9.1-45.8,22.6-37.5,20.7-14,8.6-11.6,3.4-9.5.3-10.3-2.1-37.4-12.3-12.3-2.5-25.8-.9-14.8-3.5-18.9-9.9-97.6-57.6-4.2-4.9-.3-4.5,15.6-39.5,4.6-13-1.1-5.4-10.3-6.6-56.9-24.6-30.1-13.2-115.8-56.6,29.6-63.9-17.1-23-10.4-33.9-4.9-32.5,2.2-13.2,31-59.1,25.4-37.7,5.4-12.5,5.1-13.5,2.8-22-12.7-.5-1.5,13.4-11.5,26.2-22.3,33.8-32.6,63.5-3.6,10.5-1.3,11.9.8,11.9,1.1,9.8,3.9,15,6.2,17.9,7.5,21.8,15.3,18.1-25.3,43.5-27.5,39.7-17.4-.7-135.6-71.4-7.6,13.2,22.5,13.1-.2,14.8-35.9,74.1-27.3,95.4-15.6,80.4-4.5,148.6-45.9,4.4-10-94.8-8.9-45.8-3.5-33.4.5-65.2,1.9-27.8,6.7-45.8-.6-23.5,4-13.4,3.6-15.2,4.3-9.7,2.1-9.1v-14.4l-14.2-26-16.4-14.3-11.6-16.9,4.1-14,7.7-4.2,6.8,1.7,9.4,13.3,9.4,1.1,14.7-3.5,10.3-5.5,6.3-22.8,6.7-17.9,9.1-13.9,17.7-41.7,20.8-37.9,3.5-16.8,9.4-9.2,12.2-7.3,21.9-8.7,15.2-21.4,3.3-10.7,8.4-15.6,11.6-4.4,8.6-5.6,8.8-10.2,15.1-33.5,8.1-9,12.3-10.6,21.3-14.3,12-9.4,7.7-6.7,10.6-10.2,7.5-10.1,9.1-14.9,25-30.7,9.3-16.1,3.5-15.9,7.8-19.1,6.9-11.7,8.3-8.1,14.6-6.6,12.6-7.5,3.9,3.6,33.9,17,13.7,18.7,1.1,21.7-4.6,15.4,22,83.1,16.2,49.9,2.8,11.9,1.5,20.7-2.6,24.5-8,41.3-13,25.7-18.6,27.5-25.7,50.5.6,8.6-2.3,28.2,3.1,30.6,1.4,22.8,12.3,24.5,12.7,12.3,25.8,7.1,41.4,20.4,26,17.8,41.3,21.3,36.2,20.3,35.1,18.8,27.9,16.6,36.1,20.5,17.9,8.7,37.4,6.4,29.1-3.8,35.6-15.8,42.8-19.9,48.5-40.7,40.7-21.8,36.2-24.6,34.5-25.1,57.4-32.6,85.5-44.1h0Z" inkscape:label="Ãƒrea/Quadra 3/4" sodipodi:nodetypes="cccccccccccccccccccccccccccccccccccccccccccccccccccccccccccccccccccccccccccccccccccccccccccccccccccccccccccccccccccccccccccccccccccccccccccccccccccccccccccccccc"/>
        <path id="path5311" class="st24" d="M1328.9,3109.5l34.8-13.2,10.1-2.7,7.9-.2,7.3,3.4,2.6,6.3-.3,24.7-6.5,34.9-5.2,43.4-3.4,23-6.3,24.3-24-5.1-12.2-2.3-21.4-4.4,16.7-132.3h0Z" inkscape:label="Ãƒrea"/>
        <path id="path5313" class="st24" d="M1263,3144.3l22.9-15.9,30.2-13.6-14.1,125.6-34-4.3-4.9-5.1v-86.7h-.1Z" inkscape:label="Ãƒrea" sodipodi:nodetypes="ccccccc"/>
      </g>
    </g>
    <g id="g2597" inkscape:label="Conj. CaiÃƒÂ§ara / Conj. Palmares / V. S. Maria">
      <g id="g25241" inkscape:label="TerritÃƒÂ³rio 31">
        <path id="path24454" class="st10" d="M5388.1,2273.9l14.7-3.1,43.4,23.5,63,28.9,4.1,14-120.2,218.6-13.7,3.9-59.8-32.6-44-23.6-5.1-13.7,117.5-215.8h0Z" inkscape:label="Quadra 20"/>
        <path id="path25243" class="st10" d="M5282,1713.4l15-6.6,262.8,145.5,4,14.7-33.7,62.2-13.9,3.8-265.7-147.3-3.8-13.7,35.3-58.7h0Z" inkscape:label="Quadra 15" sodipodi:nodetypes="ccccccccc"/>
        <path id="path25245" class="st10" d="M5612.9,1878.3l111.6,59.8,3.8,13.7-188,342.3-13.7,4.2-108.4-61.3-3-12.2,188.3-343.5,9.4-3h0Z" inkscape:label="Quadra 14"/>
        <path id="path26035" class="st10" d="M5230.5,1801.9l12.7-1.7,265.5,145.5,5.6,13.5-35.9,64-13.9,2.1-267.4-148.4-4-13.9v-.9l37.2-60.3h0Z" inkscape:label="Quadra 13"/>
        <path id="path26037" class="st10" d="M5216.3,1672.8l51.7,28.3v1.1l-205.5,339.7-15.3,7.9-45.7-28.6,85.8-137,85.4-138.9,43.5-72.3h0Z" inkscape:label="Quadra 12"/>
        <path id="path26039" class="st10" d="M5180.7,1906.6l14-3.5,268.2,151.8,2.3,12.4-28.7,52.1-19.5,2.9-266.8-148-4.5-10.6,34.9-57h0Z" inkscape:label="Quadra 11" sodipodi:nodetypes="ccccccccc"/>
        <path id="path27783" class="st10" d="M5128.4,1992.8l9.3-3.8,272.5,151.3,4.5,19v1l-26.3,49.6-22.5,7-272.9-150.5v-17.1l35.4-56.5h0Z" inkscape:label="Quadra 10"/>
        <path id="path27894" class="st10" d="M5068.2,2096.4l14.8-3,279.8,152.5,3.3,13.1-48.6,89-10.1,3.8h-1.1l-286.7-158-2.5-13.9,51-83.5h0Z" inkscape:label="Quadra 9"/>
        <path id="path27896" class="st10" d="M4984.8,2220.6l11.9-1.4,285.5,157.8,3.9,13.1v1.1l-46.4,85.8-10.1,5.1-294.9-159.6-2.5-15.9,52.5-86.1h0Z" inkscape:label="Quadra 8"/>
        <path id="path27898" class="st10" d="M5118,2461.8l16.6-5.9,87.5,47.4,4.3,13.8-107.9,202-15.3,4.7-89.2-48.5-4.3-12.8,108.3-200.5h0Z" inkscape:label="Quadra 7"/>
        <path id="path27901" class="st10" d="M4916.6,2344.9l12.2-1.2,168.4,92.2,1.2,14-98.4,181.7-22.2,3.5-119.9-175,.5-18.2,58.2-97h0Z" inkscape:label="Quadra 6"/>
        <path id="path24452" class="st10" d="M4991.8,2044.4l46.8,24.1,1.1,12.3-224.7,372.3,1.1,14.9,133,191.5,6.5,10.6,17.1,19.9,7.9,6.9,15.9,9.9,92.1,51.8,23.8,12.6,15.4,5.9,6.4,1.5,11,3.8,20,3.9,49.3,11.2,34.5-8.9,57.1-105-10.6-5.6-51.3,95.7-30.1,3-25-5.9-47.5-25.9-4.4-12.3,107.4-200.3,15.3-4.6,17.3,8.9,111.8,61-.2,5-120.9,221.9-37.5,4.9-40.9,17.9-18.1,10.2-13.4,28.6-17.8,20.1-23.9,8.1-32.6,2.1-29.9-9.9-22.2-19.4-28.6-20.1-26.8-26.8-17.7-30.8-19.5-49.8-29-38.1-30.8-31.1-40.9-30.8-29.8-15.5-32.3-18.3-97.8-35.8-13.6-4.9,327-540.9h0Z" inkscape:label="Ãƒrea / Quadra 1/19" sodipodi:nodetypes="cccccccccccccccccccccccccccccccccccccccccccccccccccc"/>
      </g>
      <g id="g4274" inkscape:label="TerritÃƒÂ³rio 30">
        <path id="path4269" class="st21" d="M5597,725l10.8-1,17.4,8.9,37.5,22.8,1.1,12.5-16.8,29.1-10.3,19-86.7,144.5-14.2,3.4-47.9-27.5-20.4-10.9-1.4-14,36.6-51.7,12.2-18,24.6-34.1,23.1-33.3,11.7-17.6,22.9-32h0Z" inkscape:label="Quadra 26"/>
        <path id="path4330" class="st21" d="M5716.4,729.5l5-1.8,4,1.3,24.4,36.2,35.6,53.2v3.2l-117.1,194.1-10.7,4-75.2-43.7-4-15.6,138-230.9Z" inkscape:label="Quadra 25"/>
        <path id="path4332" class="st21" d="M5598.4,1026.1l44.5,27.5,1.1,12.9-128.7,211.5-11.2,2.4-43.5-24.5,137.9-229.7h0Z" inkscape:label="Quadra 24"/>
        <path id="path4334" class="st21" d="M5735.4,963.6l12.6-2.6,201.4,111.4,24.7,36.6v1.1l-1.5,8.6-29,53.7-14,3.7-233.1-129.1-3.6-13.9,42.5-69.5h0Z" inkscape:label="Quadra 23"/>
        <path id="path4336" class="st21" d="M6005.3,1125.9l41.3,50.2,100.8,38-30.9,55.5-25.8-13-11.6-.3-8.2,2.9-6.6,6-4.4,8.5-.6,7.6v1.5c0,0,3,9.4,3,9.4l5.4,6.1,1.3,7.6-114.1,205.7-13.9,4.3-62.5-31.9-43.6-23.6-4.2-12.9v-1.6l174.7-320.2v.2Z" inkscape:label="Quadra 22"/>
        <path id="path4408" class="st21" d="M5618.9,1846.5l1.9,5.9,38,21.9,70.3-129.5,7.9,4.6-70.5,129.4,63.4,33.5,13.4-4.1,191.6-348.6-3.8-13.3-110.7-60.8h-6.9l-3.2,1.6-116.2,212.6-75.3,146.7h0Z" inkscape:label="Quadra 21/C1" sodipodi:nodetypes="ccccccccccccccc"/>
        <path id="path5214" class="st21" d="M5515.8,1327.7l10.7-.3,244.4,135.3,4.3,16.9-30.7,58.2-6.8,4.3-9,3.4-251.6-136.9-2.8-12.5,41.5-68.3h0Z" inkscape:label="Quadra 20"/>
        <path id="path5216" class="st21" d="M5440.1,1286.2l43.7,24.7,4,7.3v5l-7.5,11.4-199.7,331.5-52.4-27.7,145.3-243.5,66.7-108.6h0Z" inkscape:label="Quadra 19"/>
        <path id="path5218" class="st21" d="M5457.1,1431.1l15.1-2.6h1.1l247.7,135.4,5.6,13.4v1.1l-33.1,60.3-10.1,3.2-257.9-139.9-2.9-11.5v-.9l34.5-58.5h0Z" inkscape:label="Quadra 18" sodipodi:nodetypes="cccccccccccc"/>
        <path id="path5220" class="st21" d="M5407.7,1518.8l13.8-.6,254.2,138.3,3.4,10.2v1.2l-33.3,62.3-11.5,2.7h-1.1l-258-139.8-5-13.3v-.5l37.3-60.6h0Z" inkscape:label="Quadra 17"/>
        <path id="path5222" class="st21" d="M5668.6,1071.3l13.5-2,242.9,130.5,1.7,12.3v2.1l-55.1,91.1-11,1.7h-2.1l-240-125.8-4.2-14.3,54.4-95.5h-.1Z" inkscape:label="Quadra 17"/>
        <path id="path5224" class="st21" d="M5352.2,1615.5l10.9-4.5,263.1,143.1,3.4,12.7-33.5,61.7-7.9,4.5h-1l-264.7-147.4-3.6-12.6v-1.1l33.5-56.3h0Z" inkscape:label="Quadra 16"/>
        <path id="path5226" class="st21" d="M5591.4,1201.5l11.6-5.4,245.5,128.7,4.9,18.7-48,97.3-17,2.1-246.6-137.5-2.6-14.1,52-89.8h0Z" inkscape:label="Quadra 16"/>
        <path id="path5228" class="st21" d="M5660.7,649.5l14.7-.7,29.8,45.2-.5,11.9-12.2,20.4-13.3.9-41.9-24.3-4.5-14.5,27.9-39h0Z" inkscape:label="PraÃƒÂ§a"/>
        <path id="path5230" class="st21" d="M5797.7,856.4l11.9-4.1,9.6,3,98.9,150.2.5,8.5-3.8,6.3-7.4,3.3h-5l-145.7-80.5-2.4-9,1.2-8.6,42.1-69.2h0Z" inkscape:label="Ãƒrea"/>
      </g>
    </g>
    <g id="g2593" inkscape:label="Ch. Retiro / Lot. Rasmussem">
      <g id="g1224" inkscape:label="TerritÃƒÂ³rio 32">
        <path id="path1219" class="st22" d="M5546.9,3543.7l5.8,2.9,8.3,8.1,7.4,8.7,4.5,9.7.5,4.5-9.7,13.3-112.8,107.7-32.6-18.6-77.5-30.9-70.7-19.4-46-10.6-54.8-7-49.9-3.7-28-1-49.6,14.3-146.3,18.1-251.9,35.7-63.2-5-9.5-9.8,60.3-236.5,915.8,119.7h0Z" inkscape:label="Residencial Manchester" sodipodi:nodetypes="cccccccccccccccccccccc"/>
        <path id="path2615" class="st22" d="M3675.3,3217.2l33.6-16.2,84.4,13.2,695.8,157.7,43.3,11.3,57.9,39.8-53.5,231.8h-5.8c0-.1-18.7,9.2-18.7,9.2l-8.3,10-27.8,1.4-50.3-9.5-219.5-61.4-495.7-103.3-34-.8-33,9.9-132.2-28.6-30.1-9.5,52.2-74.5,57.8-68.1,40.1-45.8,43.9-66.5h0Z" inkscape:label="Ãƒrea" sodipodi:nodetypes="cccccccccccccccccccccc"/>
        <path id="path18295" class="st22" d="M3489.9,3242.7l11.9-21.2-424.7-185.9-1-3.5,221.5-327.3,88.9-75.8,17.1-1.7,344.2,188,11.8,41-215.6,383.6-12.4,21.3-32.3,56.2-68.9,107.7-246.5-53.3-19.3-3.4-40.4-5.6-39.7-3.6-38.5-1.4-19.7.2-42.2,1.6-35.6,3-35.7,4.7-30.7,5.5-38,8.3,211.7-313.2,30.2-2,403.8,176.7h0Z" inkscape:label="Ãƒrea" sodipodi:nodetypes="ccccccccccccccccccccccccccc"/>
      </g>
      <g id="g17781" inkscape:label="TerritÃƒÂ³rio 25">
        <path id="path10731" class="st13" d="M1438.8,2955.7l40.2-19.6,60-20.4,64.7-15.3,58.8-11.9,43.2-9.2,83.9-20.9,70-14.6,49.4-18.6,40.6-20.7,33.4-22,63.3-45,70.6-46.2,57.1-47.6,54-41.9,20.3-24.2,34-30.7,18.3-11.7,50.4,1086-83.5,30.1-42.3,11.1-32.9,5.2-2.2-149.3,2-2.4,33.3-2.1-1-14.4,3.4-6.3,88-8.5-.4-8.6,1.2-.2-1-5.7-35,3.4v4.7c0,0-47.3,3.8-47.3,3.8l-2.6-1.1-1.2-2.2,3.1-130.6,15.5-389.8h-4.3c0,0,0-51.4,0-51.4l1.8-102.3-2.8-6.7-7.6-6.7-2,.3-17.1,689.7-2.3,6.7-35.4,11.3,3.7,77,1.9,83.8-4.2,9.1-59.7,8.6-38-1-2.8-1.2-41.9,3.7-126.6-7.4-236.2-91.1-207.8-98.5-129.1-39.4,42.7-191.6,58-295.4h-.2Z" inkscape:label="Lot. Rasmussem" sodipodi:nodetypes="cccccccccccccccccccccccccccccccccccccccccccccccccccccccccccc"/>
        <path id="path18297" class="st13" d="M3434.3,2603.7l-.7,5.9.2,3.5,1.4,4.6,2,3.3,2.7,3.2,2.9,2.2,339.3,176.5h2.4l2.1-1.1,1.8-2,247.7-448.7,7.8-22.6,73.9-226.3-17.5-13.4-18.3-11.1-34.6-19.6-27.3-22.9-24.6-24.6-24.1-26.7-17.9-35.7-11.9-13.7-27.7-13.6-29.3-6.4-35,.5-45.2,7-34.9,8.5-39.9,8.8-38.9,6.1-61.4,29.8-23.2,9.4-26.6,15.6-24.7,26.5-17.8,24.5-19.2,22.1-21.3,23.7-19,26.1-25.8,41.1-19.9,37.7-15.6,33.1-19.5,51-4.3,21.4-10.1,32-13.7,63.8-15.5,55.1-55.7,70-57,49.7-57.9,25.4-51.6-.2-54.7-8.7-147.6-42.7-47.9-11.3-62.2-3.5-31-1.3h-12.6l-75.8,1.5-70-2.1-84.3-8.3-35.1-10.3-50.2-9.5-37.4-3.8-32.6-1.8-30.9,3.3-34.5,15.6-23.2,14.9,50.4,1086,13-4.3,192.5-100.7,162.9-73.1,66.3-28.6,119.1-178.7,133.8-194.8,49.5-81.6,69.7-98.1,61.3-89.8,58-81.2,91.1-86.9,296-170.8,16.2,27.9-145.8,79.9-98.6,59.8-1.8,3.4h.1Z" inkscape:label="Ch. Retiro" sodipodi:nodetypes="cccccccccccccccccccccccccccccccccccccccccccccccccccccccccccccccccccccccccccccccccc"/>
      </g>
    </g>
    <g id="g2578" inkscape:label="Ch. ElÃƒÂ­sios Campos / V. S. Isabel / V. Colemar N. S. / V. Oswaldo R.">
      <g id="g11389" inkscape:label="TerritÃƒÂ³rio 10">
        <path id="path11384" class="st16" d="M1576.2,5106.9h1.2l9.6,2.2,7.4,4.6,5.6,10.1-1.4,9.9-3.6,5.9-75.8,73.6h-22.9l-40.4-42.2-11.8-15.6,3.6-11,10-5,118.6-32.4h0Z" inkscape:label="Quadra S"/>
        <path id="path11396" class="st16" d="M1816.2,4781.8h6.6l8.8,1.9,8.4,4.3,4.2,6.3,2.6,5.3.8,7.9-55.7,85.5-4.3,4.3-6.9,4.2h-8.1l-8.5-4.2-9.1-8.5-30.9-37.8,2.2-15.1,89.9-54.1h0Z" inkscape:label="Quadra 940"/>
        <path id="path11399" class="st16" d="M1833,4597.1h15.9l82.5,32.5,7.4,5.3,5,6,3.3,7.3.4,14-3.5,8.5-27.5,37.3-5.2,5.9-32.1,17-172.7,88.7-18-5.1-63.2-99.4,5-14.8,202.7-103.3h0Z" inkscape:label="Quadra 939"/>
        <path id="path11402" class="st16" d="M1773.3,4576.8l2.4,5.2.7,4.7-2.4,5.2-9.5,5.5-141.9,72.2-18-6.1-115.8-175.7,1-6.5,6.6-5.8,7.6-5.4,9.3-2,11.8,2.1,10.8,3.7,237.4,102.9h0Z" inkscape:label="Quadra 938"/>
        <path id="path11391" class="st16" d="M1723,4927.7l10.3.5,5.1,4.9,3.7,6.5,1.2,3.9v11.4c0,0-4.3,7.9-4.3,7.9l-36.3,56.4-8.9,9.2-10.2,5.4-9.7,3-6.1,1.1-13.2-1-15.1-3.7-7.3-4.5-7.3-6.5-13.9-21.3v-.9l112.1-72.5h0Z" inkscape:label="Quadra 937"/>
        <path id="path11394" class="st16" d="M1679.7,4858.4h1.1l10.7,3.7,26.1,38.3-1.1,14-111.3,70-38.9-56.2,4.1-14,109.3-55.9h0Z" inkscape:label="Quadra 937"/>
        <path id="path11405" class="st16" d="M1587.4,4722.9l16.7,1.1,15.1,21.7,11.7,18.4,12.3,22.8,25.8,38.8-4.7,15.9-45.9,23.8-16.8-2.5-53.8-81.5-14-23.6,2.5-9.4,15.5-7.4,15.7-7,19.9-11.1h0Z" inkscape:label="Quadra 936"/>
        <path id="path11407" class="st16" d="M1507.1,4766l10.2,2.8,68.5,104.3-2.3,7.6-29.7,15-11.9-4.5-63.8-96.1,1.7-15.5,27.4-13.6Z" inkscape:label="Quadra 936"/>
        <path id="path11409" class="st16" d="M1453,4499l15.5,1.5,114.7,176-3.3,16.4-112.9,53.7-12.5-3.9-102.7-162.7,3.2-11.3,98-69.6h0Z" inkscape:label="Quadra 935"/>
        <path id="path11411" class="st16" d="M1528.8,4933.6h1.6l11.2,2.1,5.7,4.4,59.3,95,.6,3.3v6.8l-1.1,7.3-3.5,6.1-5.3,4.3-147.4,48.5-26.8,7.1-6.7,1.1h-3l-3.2-.5-3.1-.6-5.9-4.1-6-7.2-7.5-11.6-33.5-43.8-4.4-7.3-3.5-5.2v-1.1l1.5-5.5,3.4-5.4,17.4-10.3,52.5-27.7,29-14.3,47.7-25.8,30.7-15.9h.1Z" inkscape:label="Quadra 934"/>
        <path id="path11509" class="st16" d="M1438.2,4795l10.4,1.1,68.6,103.6-2.9,14.9-183.8,95.3h-15.9l-73.7-99.1,6.5-19.4,190.9-96.4h0Z" inkscape:label="Quadra 933"/>
        <path id="path11511" class="st16" d="M1309,4593.9l21.8,6.2,96.7,152.2-5.5,16.4-180.7,92.3-26-1.2-90.3-130.1v-.9l5.6-14.1,178.3-120.8h0Z" inkscape:label="Quadra 932"/>
      </g>
      <g id="g17754" inkscape:label="TerritÃƒÂ³rio 9">
        <path id="path17756" class="st29" d="M1386.4,5167.6l17.3,2,10.1,5.4,56.9,62.7-1.2,16.6-.4,1.1-83.6,82-22,1.1-98-103.4-3.2-10.2,2.2-11.8,9.7-8.4,112.3-37h0Z" inkscape:label="Quadra R"/>
        <path id="path17759" class="st29" d="M1203.5,5223.4l16.1,10.3,123.7,133.4-2.5,13.3-77.3,73.3-14-4.9-155.2-163.4-.6-1-.6-8,5.7-21.5,104.7-31.5h0Z" inkscape:label="Quadra Q"/>
        <path id="path17783" class="st29" d="M1291.4,5055.2l9,1.2,60.1,62.8,10,14.7-14.9,7.8-24.5,9.5-102,33.7-5.2,1-6.2-1.2-4.7-1.5-49.6-50.2.7-13.9,127.3-63.8h0Z" inkscape:label="Quadra 931"/>
        <path id="path17789" class="st29" d="M1077.1,4748.5l18.7.5,88.5,125.1-7.6,17.8-254.7,129.2-19.4-2.1-68.7-97,6.5-20.5,236.6-153h.1Z" inkscape:label="Quadra 930"/>
        <path id="path17787" class="st29" d="M1191.2,4920.2l15,4.5,70.2,97.8-5.7,13.3-260.9,133-16.6-3.3-67-99.1,6.7-18.2,258.2-128h0Z" inkscape:label="Quadra 929"/>
        <path id="path17785" class="st29" d="M1137.3,5131.5h1.1l4.7,1.1,29,30.9,18.6,20.7,4.3,5.4-.5,4.5-1.2,2.3-2.6,2.5-117.2,37.5-6.8,2.8-7.5,2h-1.2l-6.5-1.1-6-2.1-34.7-36.7-.5-2.7v-1.7l1.5-4.7,2.2-2,116.3-56.7,6.9-2.1Z" inkscape:label="Ãƒrea"/>
      </g>
      <g id="g4663" inkscape:label="TerritÃƒÂ³rio 8">
        <path id="path4722" class="st25" d="M1017.3,5285l11.5,1.7,12.1,3.8,20.5,21.5,156.2,168.3-1.8,12.4-109.7,102.1-17.7,3.4-108.5-113.1-15.4-22.3-70.8-107.3-1.7-12.8,5.7-14.1,5.3-7.6,112.7-35.9h1.6,0Z" inkscape:label="Quadra P"/>
        <path id="path4724" class="st25" d="M835.1,5342.7h13.5l11.7,9.9,73.8,106.7,7.4,20.6,1.6,13.7-26.1,3.4-160.3,12.5-15.1-7.4-9.2-43-4.9-15.5-9.6-38.6-2.2-12.6,9.1-12.9,110-36.7v-.2Z" inkscape:label="Quadra N"/>
        <path id="path4726" class="st25" d="M976.7,5527.3l11,7.6,78.1,91.1v11.1l-105.8,100.2-18.7,9.2-16.7-.7-191.4-73.4-5.7-12.3v-1.7l8.5-29.3,3.4-38.8,4.6-42.6,8-7,195.9-17.1h6.7l21.8,3.8h0Z" inkscape:label="Quadra M"/>
        <path id="path4728" class="st25" d="M716.2,5692l12-2,171.1,69.9,6.6,11,.5,10.9-3.3,7.2-97.5,92.9-17.3-4.3-116.1-106.7v-10.2l23.7-30.7,20.2-38.1h0Z" inkscape:label="Quadra L"/>
        <path id="path4730" class="st25" d="M636.9,5793.3l25.2,2.2,115.3,107.3-1.1,12.3-31.8,31.1-38.4,29.9-36,31.4-16,6.1-19.2,4.3-116.7-13.3-24.4-14.6-28.6-20.5-12.7-29.4-1.8-40.1,13-18,25.4-6.2,41.1-12,49.4-26,43.6-30.9,14-13.3v-.2Z" inkscape:label="Quadra K"/>
        <path id="path4719" class="st25" d="M655,5392.3l14.7,27,13.5,31.5,6.1,17,3.9,16,4.7,25.5-4.2,6.6-67.4,4.9-4.4-6.6-1.2-.9-8.1-2.8-13.5,4.6-6.7,6.5-9.4,14-1,12.6,3.1,6.7,4.1,5.4,5,3,5.5,1.6,9.1.6,7-2.8,6-5.6,4.1-7,61.5-4.9,12.3,9-1.6,26.3-5.3,29.4-5.9,27.3-9.6,25.7-12.3,26.7-10.6,18.3-10.1,14.6-19.2,25.7-22.8,23.5-23.9,19.6-24.6,17.4-27.7,14.4-29.5,12.4-47,13.3-41.4-349,22.7-13.8,9-4.6,13.8,9.7,14,11.6,13.8,13.2,10.7,13.3,2.8,14.5-1.1,9.8,1,11.7,7.9,12.6,11,9,13.4,13.7,22.1,16.9h1.5l2.2-1.1-23.5-16.4-11.8-12.4-11.7-9.6-7.9-13.3-1.1-20.9-2-13.8-7.1-10.2-9.1-10.3-21.4-19-10.2-6.4-7.3-10.2-1.1-6.2v-10.1l215.8-65.2h0Z" inkscape:label="Quadra 945/T"/>
      </g>
      <g id="g6968" inkscape:label="TerritÃƒÂ³rio 7">
        <path id="path6965" class="st4" d="M655,5392.3l-215.8,65.2,4.3-6.8,1.6-5.7v-10.6l-5.5-22.7-10-16.9-8.2-21.9-5.6-16.7-7.1-15.4-6.5-17.5-9.5-18.5-7.7-9.5-29.4-40.3-6.1-16.2-11.7-21.2-5.2-4.2,48-24.6,22.3-13.2,80.1-53.2,34.7,23,40.2,61.9,36.3,68.8-21.9,15-60.5,38.6-20.1-3.1,18.9,25.9,73.2-49.4,12.7.5,58.5,88.6h.1Z" inkscape:label="Quadra 803/944"/>
        <path id="path10369" class="st4" d="M873.2,5077.6l14.2,4.9,5.7,6.5,21.5,32.8,78,109.7,2.9,7.1.6,4.9-1.2,8.1-3.6,5.3-5.7,4.8-99.4,32.5-6.6,1.4-10.8-1.1-5-2.6-4.9-4.2-3.1-3.4-91.3-138.4,2.1-14.6,106.6-53.9h0Z" inkscape:label="Quadra 928"/>
        <path id="path10371" class="st4" d="M721.8,5151.2l16.1,5.2,86.4,131.4,4.3,7.5v9.1l-2.2,6.9-3.7,4.9-5.8,4.2-102.5,34.1h-6.3l-7.6,1.2-.9-.2-7-4.8-7.1-8.4-79.8-120.2v-.8l9.1-15.8,106.6-54.4h.6Z" inkscape:label="Quadra 927"/>
        <path id="path10373" class="st4" d="M780.4,4938.4l19.5.5,24.4,40.5,38.8,58.5-3.3,15.4-261.2,132.2-16.6-5.9-44.7-71.5,1-15,242-154.6h0Z" inkscape:label="Quadra 926"/>
        <path id="path10375" class="st4" d="M693.1,4783.2h.5l13.3,2.9,70.8,109.9-3.1,13.7-245,157.9-13.9-2.9-69.7-108.1v-1.6l2.7-12.8,244.2-158.9h0Z" inkscape:label="Quadra 810"/>
        <path id="path10377" class="st4" d="M596.6,4633.9l12.1,4.3,67.9,96.2-3.2,17.4-185.7,124.3-14.9,8.7-20.8,10.6-8-4,1.7-14.5,10.8-67,9.5-40,10.7-42.2,9.8-22,16.4-16.4,20.8-13.3,73.2-42h-.1Z" inkscape:label="Quadra 807" sodipodi:nodetypes="cccccccccccccccc"/>
        <path id="path10475" class="st4" d="M410.2,4644.3l18.8,23.2,8,22.4,1.1,32-5.3,20.7-12.8,58.3-9.1,56-2.9,97.9,19.3,47.1,13.9,26.8,40.5,63.4,1.2,7.9-24.5,14.2-45.5,25.5-88.5,49.1-22.9-43.3-10.5-16.5-14.2-19-11.9-19.4-3.2-16.8-10.6-21.8.5-16.8,2.2-15.6,4.9-18.3.4-13.6-9.2-29.8-39.9-53.8-6.8-13.8-9.5-9.4-22.2-14.3-5.5-9.5-6-12.6-.6-11.2,2-16.2,249.1-173.1h0Z" inkscape:label="Quadra 18/803" sodipodi:nodetypes="ccccccccccccccccccccccccccccccccccc"/>
      </g>
      <g id="g9963" inkscape:label="TerritÃƒÂ³rio 6">
        <path id="path9298" class="st6" d="M1287.8,4390.3l7-1.5h10.9c0-.1,146,60.3,146,60.3l5.5,4.7,2.3,4.5v1.2l-1.7,7.3-340.2,220.4-15.4-.5-75.9-106.9,6.8-17.1,254.8-172.4h-.2Z" inkscape:label="Quadra 812"/>
        <path id="path9300" class="st6" d="M974.3,4593.4l19,.5,73.1,104.5-5.4,19.6-241.8,158.8-10.3-3.7-41.6-57.1-29.4-47.3,1.7-14.6,234.7-160.6h0Z" inkscape:label="Quadra 811"/>
        <path id="path9294" class="st6" d="M1105.2,4312.4l17.8-1.7,140.6,58.1,1,9.2-7.7,5.1-236.8,150.6-13.4-2.8-65.3-102.1,3-14.2,160.7-102.1h0Z" inkscape:label="Quadra 809" sodipodi:nodetypes="cccccccccc"/>
        <path id="path9296" class="st6" d="M886.2,4446.7l15.5,1.8,67,95.4-2.8,20.7-239.6,159.4-15.4-.6-67.2-106.8,3-13.8,239.4-156.2h0Z" inkscape:label="Quadra 808"/>
        <path id="path9292" class="st6" d="M869.2,4216.5l13.7.4,158.4,62.4,14.4,6.3,7.5,9.4-2,8.1-9.4,7.6-9.1,6.6-270.1,171.7-12-5.7-85.4-124.9,3.3-20.3,162.4-109.9,14.8-8.7,13.7-3h0Z" inkscape:label="Quadra 16/806"/>
        <path id="path4010" class="st6" d="M551.4,4090.6l7-.5,9.5,2.3,186.8,76.4,33.6,12.6,21.3,10.8,2.7,7.2-38.8,26.2-12.9,7.3-104.9,75.1-21.4-9.4-50.3-74.1-16.6-24.4-10.3-16.5-5.8-15-2.1-9.6-.8-11.5-4.5-32.6-.8-18.1,4.7-4.1,3.6-1.8h0Z" inkscape:label="Quadra 14"/>
      </g>
    </g>
    <g id="g2546" inkscape:label="Bairro Feliz">
      <g id="g4480" inkscape:label="TerritÃƒÂ³rio 22">
        <path id="path4536" class="st20" d="M2126.7,4359.9l5.4,1.7,3,5.5v2.2l-1.7,7.7-58.1,90.3-78.1,27.8h-.9l-6.9-5.9v-70.9l13.2-13.2,123.9-45.3h0Z" inkscape:label="Quadra 6"/>
        <path id="path4539" class="st20" d="M2176.9,4225l17,10.5-2.1,52.9-3.9,9.7-18,17-164.6,61.5-14.6-2.3-2.1-68.5,11.5-15.8,176.8-65h0Z" inkscape:label="Quadra 5"/>
        <path id="path4541" class="st20" d="M2185.9,4112.7l9.6,5.7v60.9l-10.8,18.2-184.5,66.7-11.7-7.3,3.7-63.1,12-16.1,180.4-65.1h1.2Z" inkscape:label="Quadra 4"/>
        <path id="path4543" class="st20" d="M2187.5,4001.1l9.1,5.9v65.3l-10,16.2-175.9,65.2-16.9-4.2,1.2-67.5,10.6-12.3,181.7-68.7h.1Z" inkscape:label="Quadra 3"/>
        <path id="path4545" class="st20" d="M2188,3887.7l10.7,5.8-2.1,70.9-4.8,9.1-187.8,66.8-11.1-8.9,3.2-68.6,8.3-9,183.7-66.2Z" inkscape:label="Quadra 2"/>
        <path id="path4547" class="st20" d="M2192.7,3774.2l8.5,9.5-2.7,68.9-6.7,8.9-182.2,68.7-12.2-4.1,1.3-72.6,5.9-9.7,188-69.7h0Z" inkscape:label="Quadra 1"/>
        <path id="path4549" class="st20" d="M2047.2,4508l-49.5,73.1-9,.5-4.9-5.3.5-48.7,2.9-6,4.1-3.4,40.5-13.9,7.3-.9,5,1,3.3,3.1v.6h0Z" inkscape:label="Ãƒrea"/>
        <path id="path19146" class="st20" d="M2350.4,3684.9l9.9-3.6,63.4-33.7,80.7-41.3,71.1-42.3,30.3-19.9,47.1-27.1,55.7-25,17.3-6,9.1,3.6-376,548.5-8.7-353.1h0Z" inkscape:label="Ãƒrea"/>
        <path id="path4551" class="st20" d="M2114.4,3769.8l-98.7,36.3h-4.2l-2.7-1.1-2.7-2.6-.6-1.7v-31.4c.1,0,3.9-4.9,3.9-4.9l4.2-1.7,3.1.6,24.5,2.2h39.8l7.1-1.1,22.9-2.1h2.9l2,1.8.7,2.5-1.1,2.2-1.1.9h-.1Z" inkscape:label="PraÃƒÂ§a"/>
        <path id="path4553" class="st20" d="M2350.4,3684.9l8.7,353.1-114,166.1-3.7,9.1-8.9,4.1-6.2.6-3.8-3.7-.5-12.4v-152.8l8-240.1,11.1-75.9,88.5-41.2,20.6-6.9h.1Z" inkscape:label="CondomÃƒÂ­nio Residencial Alegria"/>
      </g>
      <g id="g5393" inkscape:label="TerritÃƒÂ³rio 12">
        <path id="path5388" class="st11" d="M1961.3,3969.2l8.5,5.9-4.7,289.9-7.2,6.5-63.6-26.5-3.9-8.1,2.7-239.2,8-9.8,60.3-18.7h0Z" inkscape:label="Quadra 23"/>
        <path id="path5395" class="st11" d="M1853.1,4114.5l10.6,13.2-4.7,90.7-11.3,8.9-224.2-91.1-5.5-16.6,28.5-59.9,12.6-5.4,39.9,17.5,47.7,20.3,34.8,10.6,25.8,6.7,21.5,3.2,24.3,1.9h0Z" inkscape:label="Quadra 22"/>
        <path id="path5397" class="st11" d="M1853.6,3995.9l10.1,9-1.2,79.1-12.2,6.2-54.9-4.9-133.2-53.4-4-13.1,29-66.6,11.8-4.5,95.5,37.9,34,9.1,25,1.1h0Z" inkscape:label="Quadra 21"/>
        <path id="path5399" class="st11" d="M1954.3,3895.8l12.9,13.1v25.3l-7.5,8.4-69.3,25.3-13.2,3.6-15.1,2.6-13.7,1-16.3-1.2-16-2.7-14.7-4.8-96.3-38.3-5.4-13.3,27.8-67.7,11.1-4.5,215.7,53.3h0Z" inkscape:label="Quadra 20"/>
        <path id="path5401" class="st11" d="M1965.9,3781.1l5.5,9.2-1,75.1-9.1,6.9-209.1-52.3-5.8-12.4,26.7-65.3,13.9-5.7,179,44.6h0Z" inkscape:label="Quadra 19"/>
      </g>
      <g id="g4065" inkscape:label="TerritÃƒÂ³rio 11">
        <path id="path3551" class="st17" d="M1564.3,4257l14-1,381.5,154.8,5.3,6.3-2.9,72.1-7.8,5.1-410.5-166.2-5.4-8.8,25.8-62.3h0Z" inkscape:label="Quadra 8"/>
        <path id="path4060" class="st17" d="M1516.2,4360.5l16.8-8.3,429.9,176.3-.5,75.5-15.7.6-448.1-179.3-3.6-11.6,21.2-53.1h0Z" inkscape:label="Quadra 7"/>
        <path id="path2787" class="st17" d="M1575.7,4217.6l22.9-53.6,16-4.8,340,137.6,7.2,10.7-1.1,65.1-9.3,8.5-369.1-148.8-6.7-14.7Z"/>
      </g>
      <g id="g982" inkscape:label="TerritÃƒÂ³rio 4">
        <path id="path1038" class="st7" d="M1384.6,3590l12.2-5,344.4,140.5,4.6,11.8-26.2,64.9-13.2,4-328.6-132.9-9-12.2,15.8-71.1h0Z" inkscape:label="Quadra 18"/>
        <path id="path1042" class="st7" d="M1369.1,3702.8l11.6-3.5,318.6,134,5,14.5-24.4,59.8-14.1,5.1-300.8-122.7-13-16.7,17-70.5h0Z" inkscape:label="Quadra 17"/>
        <path id="path1044" class="st7" d="M1339.7,3811.7l11.9-5.1h1.7l305.9,124.5,5.5,17.7-29.6,60.9-13,6.5-288.9-118.8-7.6-11.9,13.5-72.5.6-1.1h0Z" inkscape:label="Quadra 16"/>
        <path id="path1046" class="st7" d="M1314.9,3924.1l8.1-3.6,289.3,116.4,4.6,15-24.8,60.7-13.1,6.6-280.8-114.5-4.5-12.4v-1.5l21.3-66.8h0Z" inkscape:label="Quadra 15"/>
        <path id="path1048" class="st7" d="M1290.7,4036.3l12.5-4.6h1.1l267.9,109.1,5.7,12.6v1.1l-22,54.6-15.3,5.8-259.1-103.9-5.5-7.6,14.7-66.9h0Z" inkscape:label="Quadra 12" sodipodi:nodetypes="ccccccccccc"/>
        <path id="path1146" class="st7" d="M1262.1,4139.4l11.3-4.6,257.2,103.8,5.2,9.1-23.7,59-13.5,5.7-239.8-97.7-9.4-15.7,12.8-59.6h0Z" inkscape:label="Quadra 11"/>
        <path id="path1148" class="st7" d="M1239.4,4243.6l11.4-5.4,240.6,97.3,5,8.2v.6l-23.3,57.9-12.7,7.1-224.3-89.8-9.6-17.5,13-58.4h0Z" inkscape:label="Quadra 10"/>
      </g>
    </g>
    <g id="text1151-7-3-9-02" class="st34" inkscape:label="R. L-8">
      <g class="st34">
        <g class="st34">
          <text class="st36" transform="translate(624.4 3688.4) rotate(-5.7)"><tspan x="0" y="0">R. 4</tspan></text>
        </g>
      </g>
    </g>
    <g id="text1151-7-3-9-02-7" class="st34" inkscape:label="R. L-8">
      <g class="st34">
        <g class="st34">
          <text class="st36" transform="translate(886.3 3661.2) rotate(-5.7)"><tspan x="0" y="0">R. 4</tspan></text>
        </g>
      </g>
    </g>
    <g id="text1151-7-3-9-02-9" class="st34" inkscape:label="R. L-8">
      <g class="st34">
        <g class="st34">
          <text class="st36" transform="translate(1192.5 3666) rotate(18.8)"><tspan x="0" y="0">R. 4</tspan></text>
        </g>
      </g>
    </g>
    <g id="text1151-7-3-9-9" class="st34" inkscape:label="R. L-8">
      <g class="st34">
        <g class="st34">
          <text class="st36" transform="translate(865 3556.3) rotate(-97)"><tspan x="0" y="0">R. 13</tspan></text>
        </g>
      </g>
    </g>
    <path id="path3714" class="st33" d="M0,6111.5l347.5-.3,6.1,25.3,9.9,26.4,11.7,13.2,6.9,5.4,16.8,10,21.1,7.6,17.1,3.5h11.2l61.3,500.5,29.3,309.3,24.5,244.3,8,35.7-.3,11.7-6.7,25.6-2.7,2.7v30.4l7,16.3,6.4,5.3,4.9,3.2,12.9,17.3,2.4,31.4,6.3,55,1.6,19.5,6.9,107.5,14.9,178.1,3.7,85.3,9.1,80.5,8.5,68.3,6.7,46.7,3.5,30.7,1.1,16-.5,36.8-8.3,31.2" sodipodi:nodetypes="ccccccccccccccccccccccccccccccccccc"/>
    <g id="text7552" class="st34">
      <g class="st34">
        <text class="st36" transform="translate(447.7 6311.6) rotate(83)"><tspan x="0" y="0">S Leste Universitário</tspan></text>
      </g>
    </g>
  </g>
  <g class="st34">
    <text class="st36" transform="translate(3697.3 3540) rotate(11.4)"><tspan x="0" y="0">Teste do nome da rua</tspan></text>
  </g>
</svg>